<svg width="76" height="55" viewBox="0 0 76 55" fill="none" xmlns="http://www.w3.org/2000/svg">
<path fill-rule="evenodd" clip-rule="evenodd" d="M25.0375 7.0377C24.179 7.33666 23.5735 7.87788 23.1902 8.6888L22.9638 9.16772L22.9444 16.9992C22.9227 24.2082 22.8982 23.8268 23.4344 24.6315C23.9138 25.3509 24.7808 25.8701 25.7006 25.9888L26.0836 26.0381L26.2497 26.4482C26.7774 27.7511 27.8907 28.6858 29.2615 28.9768C29.8897 29.1101 30.2728 29.1103 30.9048 28.9773C32.3487 28.6735 33.5431 27.5882 34.0411 26.1278C34.0813 26.0101 34.3573 26.0023 38.4802 26.0023H42.8764L42.9938 26.3563C43.3518 27.4365 44.3733 28.439 45.5247 28.8403C47.5796 29.5564 49.7676 28.5694 50.6538 26.5265C50.8866 25.9898 50.9082 25.9647 51.2024 25.8889C52.007 25.6815 52.7563 25.0395 53.1392 24.2296L53.3687 23.744L53.389 17.7217C53.4117 11.0092 53.4201 9.75962 52.9279 8.93622C52.4217 8.08959 51.6654 7.51145 50.5786 7.14051L50.0063 6.94522L37.7012 6.92901C26.1634 6.91381 25.3738 6.92055 25.0375 7.0377ZM45.6903 10.9712C45.8127 11.0822 45.8211 12.6514 45.8211 15.2283C45.8211 16.9894 45.7945 18.0321 45.7471 18.1207C45.6745 18.2567 45.5009 18.2594 36.8939 18.2583C27.2607 18.2572 29.073 18.2755 28.1316 17.8252C26.9175 17.2445 25.9981 16.1321 25.6701 14.8471C25.5032 14.1929 25.4654 11.0882 25.6147 10.9385C25.6807 10.8724 26.7717 10.8525 34.9377 10.8525C44.721 10.8525 45.5698 10.8619 45.6903 10.9712ZM52.1024 10.9385C52.167 11.0033 52.1883 13.3587 52.1883 16.252C52.1883 20.1664 52.1818 20.2668 51.9271 20.2668C51.7896 20.2668 47.438 18.2518 47.3782 18.1605C47.3493 18.1163 47.3252 16.7994 47.3246 15.2339C47.3236 12.5981 47.3327 10.9976 47.4487 10.9299C47.6383 10.8193 51.9915 10.8274 52.1024 10.9385ZM30.9807 22.8423C31.428 23.0406 31.9691 23.5763 32.1657 24.0154C32.4026 24.5448 32.3976 25.3879 32.1545 25.8948C31.322 27.6301 28.8695 27.6606 28.0293 25.9459C27.8567 25.5938 27.8287 25.4508 27.8296 24.9269C27.8304 24.4081 27.8586 24.2642 28.0191 23.959C28.6102 22.8357 29.8831 22.3558 30.9807 22.8423ZM47.4157 22.7393C48.5971 23.0477 49.3202 24.16 49.1034 25.3353C49.0057 25.8646 48.8379 26.1885 48.47 26.5571C47.9883 27.0399 47.6147 27.1854 46.8585 27.1846C46.299 27.184 46.1668 27.1587 45.8492 26.9914C45.3681 26.7379 44.8618 26.1667 44.7086 25.7046C44.5464 25.2151 44.5929 24.3624 44.8043 23.9507C45.1245 23.3269 45.6354 22.9149 46.3168 22.7307C46.7556 22.6122 46.934 22.6136 47.4157 22.7393Z" fill="#F0F0F0"/>
<path d="M5.44482 51H3.79736V42.4004H0.871582V41.0059H8.36377V42.4004H5.44482V51ZM13.6138 43.2891C14.5116 43.2891 15.2316 43.6172 15.7739 44.2734C16.3208 44.9297 16.5942 45.9049 16.5942 47.1992C16.5942 48.056 16.4666 48.7783 16.2114 49.3662C15.9608 49.9495 15.6076 50.3916 15.1519 50.6924C14.7007 50.9886 14.1743 51.1367 13.5728 51.1367C13.1899 51.1367 12.8573 51.0866 12.5747 50.9863C12.2922 50.8861 12.0506 50.7562 11.8501 50.5967C11.6496 50.4326 11.481 50.2549 11.3442 50.0635H11.2485C11.2713 50.2458 11.2918 50.4486 11.3101 50.6719C11.3328 50.8906 11.3442 51.0911 11.3442 51.2734V54.3564H9.73096V43.4326H11.0435L11.269 44.4785H11.3442C11.4855 44.2643 11.6564 44.0661 11.8569 43.8838C12.062 43.7015 12.3081 43.5579 12.5952 43.4531C12.8869 43.3438 13.2264 43.2891 13.6138 43.2891ZM13.1831 44.6016C12.741 44.6016 12.3856 44.6904 12.1167 44.8682C11.8524 45.0413 11.6587 45.3034 11.5356 45.6543C11.4172 46.0052 11.3534 46.445 11.3442 46.9736V47.1992C11.3442 47.7598 11.4012 48.236 11.5151 48.6279C11.6336 49.0153 11.8273 49.3115 12.0962 49.5166C12.3696 49.7171 12.7388 49.8174 13.2036 49.8174C13.5955 49.8174 13.9191 49.7103 14.1743 49.4961C14.4341 49.2819 14.6278 48.9766 14.7554 48.5801C14.883 48.1836 14.9468 47.7165 14.9468 47.1787C14.9468 46.363 14.8009 45.7295 14.5093 45.2783C14.2222 44.8271 13.7801 44.6016 13.1831 44.6016ZM21.4204 43.2891C22.3774 43.2891 23.0998 43.501 23.5874 43.9248C24.0796 44.3486 24.3257 45.0094 24.3257 45.9072V51H23.1841L22.8765 49.9268H22.8218C22.6076 50.2002 22.3866 50.4258 22.1587 50.6035C21.9308 50.7812 21.6665 50.9134 21.3657 51C21.0695 51.0911 20.7072 51.1367 20.2788 51.1367C19.8276 51.1367 19.4243 51.0547 19.0688 50.8906C18.7134 50.722 18.4331 50.4668 18.228 50.125C18.0229 49.7832 17.9204 49.3503 17.9204 48.8262C17.9204 48.0469 18.2098 47.4613 18.7886 47.0693C19.3719 46.6774 20.2515 46.4609 21.4272 46.4199L22.7397 46.3721V45.9756C22.7397 45.4515 22.6167 45.0778 22.3706 44.8545C22.1291 44.6312 21.7873 44.5195 21.3452 44.5195C20.967 44.5195 20.6001 44.5742 20.2446 44.6836C19.8892 44.793 19.5428 44.9274 19.2056 45.0869L18.686 43.9521C19.0552 43.7562 19.4744 43.5967 19.9438 43.4736C20.4178 43.3506 20.91 43.2891 21.4204 43.2891ZM22.7329 47.3838L21.7554 47.418C20.9533 47.4453 20.3905 47.582 20.0669 47.8281C19.7433 48.0742 19.5815 48.4115 19.5815 48.8398C19.5815 49.2135 19.6932 49.487 19.9165 49.6602C20.1398 49.8288 20.4338 49.9131 20.7983 49.9131C21.3543 49.9131 21.8146 49.7559 22.1792 49.4414C22.5483 49.1224 22.7329 48.6553 22.7329 48.04V47.3838ZM28.188 43.4326V46.4746H31.729V43.4326H33.3423V51H31.729V47.7324H28.188V51H26.5747V43.4326H28.188ZM38.688 51.1367C37.9725 51.1367 37.3527 50.9977 36.8286 50.7197C36.3045 50.4417 35.9012 50.0156 35.6187 49.4414C35.3361 48.8672 35.1948 48.138 35.1948 47.2539C35.1948 46.3333 35.3498 45.5814 35.6597 44.998C35.9696 44.4147 36.3979 43.984 36.9448 43.7061C37.4963 43.4281 38.1274 43.2891 38.8384 43.2891C39.2896 43.2891 39.6974 43.3346 40.062 43.4258C40.4312 43.5124 40.7433 43.6195 40.9985 43.7471L40.52 45.0322C40.242 44.9183 39.9572 44.8226 39.6655 44.7451C39.3739 44.6676 39.0936 44.6289 38.8247 44.6289C38.3826 44.6289 38.0135 44.7269 37.7173 44.9229C37.4256 45.1188 37.2069 45.4105 37.061 45.7979C36.9198 46.1852 36.8491 46.666 36.8491 47.2402C36.8491 47.7962 36.922 48.2656 37.0679 48.6484C37.2137 49.0267 37.4302 49.3138 37.7173 49.5098C38.0044 49.7012 38.3576 49.7969 38.7769 49.7969C39.1916 49.7969 39.563 49.7467 39.8911 49.6465C40.2192 49.5462 40.5291 49.4163 40.8208 49.2568V50.6514C40.5337 50.8154 40.2261 50.9362 39.8979 51.0137C39.5698 51.0957 39.1665 51.1367 38.688 51.1367ZM49.2085 43.4326V51H47.5884V44.7041H44.2114V51H42.5981V43.4326H49.2085ZM58.2114 47.1992C58.2114 47.8281 58.1294 48.3864 57.9653 48.874C57.8013 49.3617 57.562 49.7741 57.2476 50.1113C56.9331 50.444 56.5549 50.6992 56.1128 50.877C55.6707 51.0501 55.1717 51.1367 54.6157 51.1367C54.0962 51.1367 53.62 51.0501 53.187 50.877C52.7541 50.6992 52.3781 50.444 52.0591 50.1113C51.7446 49.7741 51.5008 49.3617 51.3276 48.874C51.1545 48.3864 51.0679 47.8281 51.0679 47.1992C51.0679 46.3652 51.2114 45.6589 51.4985 45.0801C51.7902 44.4967 52.2049 44.0524 52.7427 43.7471C53.2804 43.4417 53.9207 43.2891 54.6636 43.2891C55.3608 43.2891 55.9761 43.4417 56.5093 43.7471C57.0425 44.0524 57.4595 44.4967 57.7603 45.0801C58.061 45.6634 58.2114 46.3698 58.2114 47.1992ZM52.7222 47.1992C52.7222 47.7507 52.7882 48.2223 52.9204 48.6143C53.0571 49.0062 53.2668 49.307 53.5493 49.5166C53.8319 49.7217 54.1965 49.8242 54.6431 49.8242C55.0897 49.8242 55.4543 49.7217 55.7368 49.5166C56.0194 49.307 56.2267 49.0062 56.3589 48.6143C56.491 48.2223 56.5571 47.7507 56.5571 47.1992C56.5571 46.6478 56.491 46.1807 56.3589 45.7979C56.2267 45.4105 56.0194 45.1165 55.7368 44.916C55.4543 44.7109 55.0874 44.6084 54.6362 44.6084C53.9709 44.6084 53.4855 44.8317 53.1802 45.2783C52.8748 45.7249 52.7222 46.3652 52.7222 47.1992ZM63.9399 43.2891C64.8377 43.2891 65.5578 43.6172 66.1001 44.2734C66.647 44.9297 66.9204 45.9049 66.9204 47.1992C66.9204 48.056 66.7928 48.7783 66.5376 49.3662C66.2869 49.9495 65.9338 50.3916 65.478 50.6924C65.0269 50.9886 64.5005 51.1367 63.8989 51.1367C63.5161 51.1367 63.1834 51.0866 62.9009 50.9863C62.6183 50.8861 62.3768 50.7562 62.1763 50.5967C61.9757 50.4326 61.8071 50.2549 61.6704 50.0635H61.5747C61.5975 50.2458 61.618 50.4486 61.6362 50.6719C61.659 50.8906 61.6704 51.0911 61.6704 51.2734V54.3564H60.0571V43.4326H61.3696L61.5952 44.4785H61.6704C61.8117 44.2643 61.9826 44.0661 62.1831 43.8838C62.3882 43.7015 62.6343 43.5579 62.9214 43.4531C63.2131 43.3438 63.5526 43.2891 63.9399 43.2891ZM63.5093 44.6016C63.0672 44.6016 62.7118 44.6904 62.4429 44.8682C62.1785 45.0413 61.9849 45.3034 61.8618 45.6543C61.7433 46.0052 61.6795 46.445 61.6704 46.9736V47.1992C61.6704 47.7598 61.7274 48.236 61.8413 48.6279C61.9598 49.0153 62.1535 49.3115 62.4224 49.5166C62.6958 49.7171 63.0649 49.8174 63.5298 49.8174C63.9217 49.8174 64.2453 49.7103 64.5005 49.4961C64.7603 49.2819 64.9539 48.9766 65.0815 48.5801C65.2091 48.1836 65.2729 47.7165 65.2729 47.1787C65.2729 46.363 65.1271 45.7295 64.8354 45.2783C64.5483 44.8271 64.1063 44.6016 63.5093 44.6016ZM74.4946 44.6973H72.0063V51H70.4067V44.6973H67.9321V43.4326H74.4946V44.6973Z" fill="#F0F0F0"/>
</svg>
