<svg width="76" height="55" viewBox="0 0 76 55" fill="none" xmlns="http://www.w3.org/2000/svg">
<path fill-rule="evenodd" clip-rule="evenodd" d="M25.0379 7.0377C24.1794 7.33666 23.5739 7.87788 23.1906 8.6888L22.9641 9.16772L22.9447 16.9992C22.9231 24.2082 22.8986 23.8268 23.4348 24.6315C23.9141 25.3509 24.7811 25.8701 25.7009 25.9888L26.084 26.0381L26.25 26.4482C26.7778 27.7511 27.891 28.6858 29.2618 28.9768C29.8901 29.1101 30.2731 29.1103 30.9052 28.9773C32.349 28.6735 33.5435 27.5882 34.0415 26.1278C34.0816 26.0101 34.3576 26.0023 38.4805 26.0023H42.8768L42.9941 26.3563C43.3521 27.4365 44.3737 28.439 45.5251 28.8403C47.58 29.5564 49.768 28.5694 50.6542 26.5265C50.887 25.9898 50.9086 25.9647 51.2028 25.8889C52.0074 25.6815 52.7567 25.0395 53.1395 24.2296L53.3691 23.744L53.3894 17.7217C53.4121 11.0092 53.4205 9.75962 52.9283 8.93622C52.4221 8.08959 51.6658 7.51145 50.579 7.14051L50.0067 6.94522L37.7016 6.92901C26.1638 6.91381 25.3741 6.92055 25.0379 7.0377ZM45.6907 10.9712C45.8131 11.0822 45.8215 12.6514 45.8215 15.2283C45.8215 16.9894 45.7948 18.0321 45.7475 18.1207C45.6748 18.2567 45.5013 18.2594 36.8943 18.2583C27.2611 18.2572 29.0733 18.2755 28.132 17.8252C26.9179 17.2445 25.9985 16.1321 25.6705 14.8471C25.5036 14.1929 25.4657 11.0882 25.615 10.9385C25.6811 10.8724 26.772 10.8525 34.938 10.8525C44.7214 10.8525 45.5702 10.8619 45.6907 10.9712ZM52.1028 10.9385C52.1674 11.0033 52.1887 13.3587 52.1887 16.252C52.1887 20.1664 52.1822 20.2668 51.9275 20.2668C51.79 20.2668 47.4384 18.2518 47.3786 18.1605C47.3497 18.1163 47.3256 16.7994 47.3249 15.2339C47.3239 12.5981 47.3331 10.9976 47.4491 10.9299C47.6387 10.8193 51.9919 10.8274 52.1028 10.9385ZM30.981 22.8423C31.4284 23.0406 31.9694 23.5763 32.166 24.0154C32.403 24.5448 32.398 25.3879 32.1549 25.8948C31.3224 27.6301 28.8699 27.6606 28.0297 25.9459C27.8571 25.5938 27.8291 25.4508 27.8299 24.9269C27.8308 24.4081 27.859 24.2642 28.0195 23.959C28.6106 22.8357 29.8834 22.3558 30.981 22.8423ZM47.4161 22.7393C48.5974 23.0477 49.3206 24.16 49.1037 25.3353C49.0061 25.8646 48.8383 26.1885 48.4704 26.5571C47.9886 27.0399 47.615 27.1854 46.8589 27.1846C46.2993 27.184 46.1671 27.1587 45.8496 26.9914C45.3684 26.7379 44.8621 26.1667 44.709 25.7046C44.5468 25.2151 44.5933 24.3624 44.8047 23.9507C45.1249 23.3269 45.6358 22.9149 46.3172 22.7307C46.756 22.6122 46.9343 22.6136 47.4161 22.7393Z" fill="#828D99"/>
<path d="M5.44495 51H3.79749V42.4004H0.871704V41.0059H8.36389V42.4004H5.44495V51ZM13.6139 43.2891C14.5117 43.2891 15.2317 43.6172 15.774 44.2734C16.3209 44.9297 16.5944 45.9049 16.5944 47.1992C16.5944 48.056 16.4668 48.7783 16.2115 49.3662C15.9609 49.9495 15.6077 50.3916 15.152 50.6924C14.7008 50.9886 14.1744 51.1367 13.5729 51.1367C13.1901 51.1367 12.8574 51.0866 12.5748 50.9863C12.2923 50.8861 12.0507 50.7562 11.8502 50.5967C11.6497 50.4326 11.4811 50.2549 11.3444 50.0635H11.2487C11.2714 50.2458 11.292 50.4486 11.3102 50.6719C11.333 50.8906 11.3444 51.0911 11.3444 51.2734V54.3564H9.73108V43.4326H11.0436L11.2692 44.4785H11.3444C11.4856 44.2643 11.6565 44.0661 11.8571 43.8838C12.0621 43.7015 12.3082 43.5579 12.5953 43.4531C12.887 43.3438 13.2265 43.2891 13.6139 43.2891ZM13.1832 44.6016C12.7412 44.6016 12.3857 44.6904 12.1168 44.8682C11.8525 45.0413 11.6588 45.3034 11.5358 45.6543C11.4173 46.0052 11.3535 46.445 11.3444 46.9736V47.1992C11.3444 47.7598 11.4013 48.236 11.5153 48.6279C11.6337 49.0153 11.8274 49.3115 12.0963 49.5166C12.3698 49.7171 12.7389 49.8174 13.2037 49.8174C13.5957 49.8174 13.9192 49.7103 14.1744 49.4961C14.4342 49.2819 14.6279 48.9766 14.7555 48.5801C14.8831 48.1836 14.9469 47.7165 14.9469 47.1787C14.9469 46.363 14.8011 45.7295 14.5094 45.2783C14.2223 44.8271 13.7802 44.6016 13.1832 44.6016ZM21.4205 43.2891C22.3776 43.2891 23.0999 43.501 23.5875 43.9248C24.0797 44.3486 24.3258 45.0094 24.3258 45.9072V51H23.1842L22.8766 49.9268H22.8219C22.6077 50.2002 22.3867 50.4258 22.1588 50.6035C21.9309 50.7812 21.6666 50.9134 21.3658 51C21.0696 51.0911 20.7073 51.1367 20.2789 51.1367C19.8278 51.1367 19.4244 51.0547 19.069 50.8906C18.7135 50.722 18.4332 50.4668 18.2281 50.125C18.0231 49.7832 17.9205 49.3503 17.9205 48.8262C17.9205 48.0469 18.2099 47.4613 18.7887 47.0693C19.372 46.6774 20.2516 46.4609 21.4274 46.4199L22.7399 46.3721V45.9756C22.7399 45.4515 22.6168 45.0778 22.3707 44.8545C22.1292 44.6312 21.7874 44.5195 21.3453 44.5195C20.9671 44.5195 20.6002 44.5742 20.2448 44.6836C19.8893 44.793 19.5429 44.9274 19.2057 45.0869L18.6862 43.9521C19.0553 43.7562 19.4746 43.5967 19.944 43.4736C20.4179 43.3506 20.9101 43.2891 21.4205 43.2891ZM22.733 47.3838L21.7555 47.418C20.9534 47.4453 20.3906 47.582 20.067 47.8281C19.7434 48.0742 19.5817 48.4115 19.5817 48.8398C19.5817 49.2135 19.6933 49.487 19.9166 49.6602C20.1399 49.8288 20.4339 49.9131 20.7985 49.9131C21.3545 49.9131 21.8147 49.7559 22.1793 49.4414C22.5485 49.1224 22.733 48.6553 22.733 48.04V47.3838ZM28.1881 43.4326V46.4746H31.7291V43.4326H33.3424V51H31.7291V47.7324H28.1881V51H26.5748V43.4326H28.1881ZM38.6881 51.1367C37.9726 51.1367 37.3528 50.9977 36.8287 50.7197C36.3046 50.4417 35.9013 50.0156 35.6188 49.4414C35.3362 48.8672 35.1949 48.138 35.1949 47.2539C35.1949 46.3333 35.3499 45.5814 35.6598 44.998C35.9697 44.4147 36.3981 43.984 36.9449 43.7061C37.4964 43.4281 38.1276 43.2891 38.8385 43.2891C39.2897 43.2891 39.6976 43.3346 40.0621 43.4258C40.4313 43.5124 40.7434 43.6195 40.9987 43.7471L40.5201 45.0322C40.2421 44.9183 39.9573 44.8226 39.6656 44.7451C39.374 44.6676 39.0937 44.6289 38.8248 44.6289C38.3828 44.6289 38.0136 44.7269 37.7174 44.9229C37.4257 45.1188 37.207 45.4105 37.0612 45.7979C36.9199 46.1852 36.8492 46.666 36.8492 47.2402C36.8492 47.7962 36.9222 48.2656 37.068 48.6484C37.2138 49.0267 37.4303 49.3138 37.7174 49.5098C38.0045 49.7012 38.3577 49.7969 38.777 49.7969C39.1917 49.7969 39.5631 49.7467 39.8912 49.6465C40.2194 49.5462 40.5293 49.4163 40.8209 49.2568V50.6514C40.5338 50.8154 40.2262 50.9362 39.8981 51.0137C39.5699 51.0957 39.1666 51.1367 38.6881 51.1367ZM49.2086 43.4326V51H47.5885V44.7041H44.2115V51H42.5983V43.4326H49.2086ZM58.2115 47.1992C58.2115 47.8281 58.1295 48.3864 57.9655 48.874C57.8014 49.3617 57.5621 49.7741 57.2477 50.1113C56.9332 50.444 56.555 50.6992 56.1129 50.877C55.6709 51.0501 55.1718 51.1367 54.6158 51.1367C54.0963 51.1367 53.6201 51.0501 53.1871 50.877C52.7542 50.6992 52.3782 50.444 52.0592 50.1113C51.7448 49.7741 51.5009 49.3617 51.3278 48.874C51.1546 48.3864 51.068 47.8281 51.068 47.1992C51.068 46.3652 51.2115 45.6589 51.4987 45.0801C51.7903 44.4967 52.205 44.0524 52.7428 43.7471C53.2806 43.4417 53.9209 43.2891 54.6637 43.2891C55.361 43.2891 55.9762 43.4417 56.5094 43.7471C57.0426 44.0524 57.4596 44.4967 57.7604 45.0801C58.0612 45.6634 58.2115 46.3698 58.2115 47.1992ZM52.7223 47.1992C52.7223 47.7507 52.7884 48.2223 52.9205 48.6143C53.0573 49.0062 53.2669 49.307 53.5494 49.5166C53.832 49.7217 54.1966 49.8242 54.6432 49.8242C55.0898 49.8242 55.4544 49.7217 55.7369 49.5166C56.0195 49.307 56.2268 49.0062 56.359 48.6143C56.4912 48.2223 56.5573 47.7507 56.5573 47.1992C56.5573 46.6478 56.4912 46.1807 56.359 45.7979C56.2268 45.4105 56.0195 45.1165 55.7369 44.916C55.4544 44.7109 55.0875 44.6084 54.6364 44.6084C53.971 44.6084 53.4856 44.8317 53.1803 45.2783C52.875 45.7249 52.7223 46.3652 52.7223 47.1992ZM63.9401 43.2891C64.8378 43.2891 65.5579 43.6172 66.1002 44.2734C66.6471 44.9297 66.9205 45.9049 66.9205 47.1992C66.9205 48.056 66.7929 48.7783 66.5377 49.3662C66.2871 49.9495 65.9339 50.3916 65.4781 50.6924C65.027 50.9886 64.5006 51.1367 63.899 51.1367C63.5162 51.1367 63.1836 51.0866 62.901 50.9863C62.6184 50.8861 62.3769 50.7562 62.1764 50.5967C61.9759 50.4326 61.8073 50.2549 61.6705 50.0635H61.5748C61.5976 50.2458 61.6181 50.4486 61.6364 50.6719C61.6591 50.8906 61.6705 51.0911 61.6705 51.2734V54.3564H60.0573V43.4326H61.3698L61.5953 44.4785H61.6705C61.8118 44.2643 61.9827 44.0661 62.1832 43.8838C62.3883 43.7015 62.6344 43.5579 62.9215 43.4531C63.2132 43.3438 63.5527 43.2891 63.9401 43.2891ZM63.5094 44.6016C63.0673 44.6016 62.7119 44.6904 62.443 44.8682C62.1787 45.0413 61.985 45.3034 61.8619 45.6543C61.7434 46.0052 61.6796 46.445 61.6705 46.9736V47.1992C61.6705 47.7598 61.7275 48.236 61.8414 48.6279C61.9599 49.0153 62.1536 49.3115 62.4225 49.5166C62.6959 49.7171 63.0651 49.8174 63.5299 49.8174C63.9218 49.8174 64.2454 49.7103 64.5006 49.4961C64.7604 49.2819 64.9541 48.9766 65.0817 48.5801C65.2093 48.1836 65.2731 47.7165 65.2731 47.1787C65.2731 46.363 65.1272 45.7295 64.8356 45.2783C64.5485 44.8271 64.1064 44.6016 63.5094 44.6016ZM74.4948 44.6973H72.0065V51H70.4069V44.6973H67.9323V43.4326H74.4948V44.6973Z" fill="#828D99"/>
</svg>
