<svg width="26" height="26" viewBox="0 0 26 26" fill="none" xmlns="http://www.w3.org/2000/svg">
<path fill-rule="evenodd" clip-rule="evenodd" d="M3.5181 5.08278C2.89808 5.2987 2.46075 5.68958 2.18391 6.27524L2.02038 6.62113L2.00638 12.2772C1.99072 17.4837 1.97305 17.2083 2.36031 17.7894C2.70649 18.309 3.33266 18.684 3.99696 18.7697L4.2736 18.8053L4.39352 19.1014C4.77468 20.0425 5.57869 20.7175 6.56871 20.9277C7.02247 21.024 7.2991 21.0241 7.75559 20.928C8.79837 20.7086 9.66103 19.9248 10.0207 18.87C10.0497 18.7851 10.249 18.7794 13.2267 18.7794H16.4018L16.4865 19.0351C16.745 19.8152 17.4828 20.5393 18.3144 20.8291C19.7985 21.3463 21.3787 20.6334 22.0187 19.158C22.1869 18.7704 22.2025 18.7523 22.4149 18.6975C22.9961 18.5477 23.5372 18.0841 23.8137 17.4992L23.9795 17.1484L23.9942 12.799C24.0106 7.95112 24.0166 7.04861 23.6611 6.45393C23.2956 5.84248 22.7493 5.42493 21.9644 5.15703L21.5511 5.01599L12.6641 5.00428C4.33125 4.99331 3.76094 4.99817 3.5181 5.08278ZM18.434 7.92362C18.5224 8.00382 18.5285 9.13716 18.5285 10.9982C18.5285 12.2701 18.5092 13.0231 18.475 13.0872C18.4226 13.1854 18.2972 13.1873 12.081 13.1866C5.12374 13.1857 6.43257 13.1989 5.75272 12.8738C4.87585 12.4544 4.21186 11.651 3.97496 10.7229C3.85442 10.2504 3.82708 8.00812 3.93492 7.90006C3.98261 7.85227 4.77054 7.83793 10.6682 7.83793C17.7339 7.83793 18.347 7.84471 18.434 7.92362ZM23.065 7.90006C23.1116 7.94682 23.127 9.64795 23.127 11.7375C23.127 14.5646 23.1223 14.6371 22.9383 14.6371C22.839 14.6371 19.6962 13.1818 19.6531 13.1159C19.6322 13.084 19.6148 12.1329 19.6143 11.0023C19.6136 9.09863 19.6202 7.94273 19.7039 7.89385C19.8409 7.8139 22.9848 7.81975 23.065 7.90006ZM7.81036 16.4972C8.13344 16.6404 8.52421 17.0273 8.6662 17.3444C8.83732 17.7268 8.83371 18.3357 8.65814 18.7018C8.05687 19.9551 6.28562 19.9771 5.67883 18.7387C5.5542 18.4844 5.53395 18.3811 5.53457 18.0028C5.53519 17.6281 5.55554 17.5242 5.67149 17.3037C6.09838 16.4925 7.01766 16.1458 7.81036 16.4972ZM19.6801 16.4228C20.5333 16.6455 21.0556 17.4489 20.899 18.2977C20.8285 18.68 20.7072 18.9139 20.4416 19.1802C20.0936 19.5288 19.8238 19.6339 19.2777 19.6333C18.8736 19.6329 18.7781 19.6146 18.5487 19.4938C18.2013 19.3107 17.8356 18.8982 17.725 18.5644C17.6079 18.2109 17.6414 17.5951 17.7941 17.2977C18.0254 16.8472 18.3944 16.5496 18.8865 16.4166C19.2034 16.331 19.3322 16.332 19.6801 16.4228Z" fill="#007A3D"/>
</svg>
