<svg width="17" height="17" viewBox="0 0 17 17" fill="none" xmlns="http://www.w3.org/2000/svg">
<path d="M3.58493 3.50972C4.03374 3.18364 4.57483 3.01476 5.3125 2.92729V3.54166C5.3125 4.12846 5.7882 4.60416 6.375 4.60416C6.9618 4.60416 7.4375 4.12846 7.4375 3.54166V2.83531C7.76624 2.83332 8.11949 2.83332 8.5 2.83332C8.88051 2.83332 9.23376 2.83332 9.5625 2.83531V3.54166C9.5625 4.12846 10.0382 4.60416 10.625 4.60416C11.2118 4.60416 11.6875 4.12846 11.6875 3.54166V2.92729C12.4252 3.01476 12.9663 3.18364 13.4151 3.50972C13.7157 3.72817 13.9802 3.99258 14.1986 4.29325C14.5984 4.84346 14.7618 5.53234 14.8287 6.55207H2.17128C2.23815 5.53234 2.40165 4.84346 2.8014 4.29325C3.01985 3.99258 3.28426 3.72817 3.58493 3.50972Z" fill="#65BC47"/>
<path fill-rule="evenodd" clip-rule="evenodd" d="M2.13258 7.61442C2.125 8.08618 2.125 8.61401 2.125 9.20832C2.125 11.8644 2.125 13.1924 2.8014 14.1234C3.01985 14.4241 3.28426 14.6885 3.58493 14.9069C4.51591 15.5833 5.84394 15.5833 8.5 15.5833C9.09425 15.5833 9.62203 15.5833 10.0937 15.5757L10.0937 15.5261C10.0937 14.9226 10.0937 14.5549 10.1439 14.2378C10.4199 12.4951 11.7868 11.1282 13.5295 10.8522C13.8466 10.802 14.2142 10.802 14.8178 10.8021L14.8674 10.8021C14.875 10.3303 14.875 9.80258 14.875 9.20832C14.875 8.61401 14.875 8.08618 14.8674 7.61442L14.8544 7.61457H2.14541L2.13258 7.61442ZM6.375 9.38541C6.0816 9.38541 5.84375 9.62326 5.84375 9.91666C5.84375 10.2101 6.0816 10.4479 6.375 10.4479H10.625C10.9184 10.4479 11.1562 10.2101 11.1562 9.91666C11.1562 9.62326 10.9184 9.38541 10.625 9.38541H6.375Z" fill="#65BC47"/>
<path d="M13.4151 14.9069C12.8649 15.3067 12.176 15.4702 11.1563 15.537C11.1563 14.8922 11.1587 14.6225 11.1933 14.4041C11.3973 13.1159 12.4076 12.1057 13.6957 11.9016C13.9142 11.867 14.1839 11.8647 14.8287 11.8646C14.7618 12.8843 14.5983 13.5732 14.1986 14.1234C13.9802 14.4241 13.7157 14.6885 13.4151 14.9069Z" fill="#65BC47"/>
<path d="M6.90625 1.41666C6.90625 1.12326 6.6684 0.885406 6.375 0.885406C6.0816 0.885406 5.84375 1.12326 5.84375 1.41666V3.54166C5.84375 3.83506 6.0816 4.07291 6.375 4.07291C6.6684 4.07291 6.90625 3.83506 6.90625 3.54166V1.41666Z" fill="#65BC47"/>
<path d="M11.1562 1.41666C11.1562 1.12326 10.9184 0.885406 10.625 0.885406C10.3316 0.885406 10.0938 1.12326 10.0938 1.41666V3.54166C10.0938 3.83506 10.3316 4.07291 10.625 4.07291C10.9184 4.07291 11.1562 3.83506 11.1562 3.54166V1.41666Z" fill="#65BC47"/>
<path d="M3.58493 3.50972C4.03374 3.18364 4.57483 3.01476 5.3125 2.92729V3.54166C5.3125 4.12846 5.7882 4.60416 6.375 4.60416C6.9618 4.60416 7.4375 4.12846 7.4375 3.54166V2.83531C7.76624 2.83332 8.11949 2.83332 8.5 2.83332C8.88051 2.83332 9.23376 2.83332 9.5625 2.83531V3.54166C9.5625 4.12846 10.0382 4.60416 10.625 4.60416C11.2118 4.60416 11.6875 4.12846 11.6875 3.54166V2.92729C12.4252 3.01476 12.9663 3.18364 13.4151 3.50972C13.7157 3.72817 13.9802 3.99258 14.1986 4.29325C14.5984 4.84346 14.7618 5.53234 14.8287 6.55207H2.17128C2.23815 5.53234 2.40165 4.84346 2.8014 4.29325C3.01985 3.99258 3.28426 3.72817 3.58493 3.50972Z" stroke="#65BC47"/>
<path fill-rule="evenodd" clip-rule="evenodd" d="M2.13258 7.61442C2.125 8.08618 2.125 8.61401 2.125 9.20832C2.125 11.8644 2.125 13.1924 2.8014 14.1234C3.01985 14.4241 3.28426 14.6885 3.58493 14.9069C4.51591 15.5833 5.84394 15.5833 8.5 15.5833C9.09425 15.5833 9.62203 15.5833 10.0937 15.5757L10.0937 15.5261C10.0937 14.9226 10.0937 14.5549 10.1439 14.2378C10.4199 12.4951 11.7868 11.1282 13.5295 10.8522C13.8466 10.802 14.2142 10.802 14.8178 10.8021L14.8674 10.8021C14.875 10.3303 14.875 9.80258 14.875 9.20832C14.875 8.61401 14.875 8.08618 14.8674 7.61442L14.8544 7.61457H2.14541L2.13258 7.61442ZM6.375 9.38541C6.0816 9.38541 5.84375 9.62326 5.84375 9.91666C5.84375 10.2101 6.0816 10.4479 6.375 10.4479H10.625C10.9184 10.4479 11.1562 10.2101 11.1562 9.91666C11.1562 9.62326 10.9184 9.38541 10.625 9.38541H6.375Z" stroke="#65BC47"/>
<path d="M13.4151 14.9069C12.8649 15.3067 12.176 15.4702 11.1563 15.537C11.1563 14.8922 11.1587 14.6225 11.1933 14.4041C11.3973 13.1159 12.4076 12.1057 13.6957 11.9016C13.9142 11.867 14.1839 11.8647 14.8287 11.8646C14.7618 12.8843 14.5983 13.5732 14.1986 14.1234C13.9802 14.4241 13.7157 14.6885 13.4151 14.9069Z" stroke="#65BC47"/>
<path d="M6.90625 1.41666C6.90625 1.12326 6.6684 0.885406 6.375 0.885406C6.0816 0.885406 5.84375 1.12326 5.84375 1.41666V3.54166C5.84375 3.83506 6.0816 4.07291 6.375 4.07291C6.6684 4.07291 6.90625 3.83506 6.90625 3.54166V1.41666Z" stroke="#65BC47"/>
<path d="M11.1562 1.41666C11.1562 1.12326 10.9184 0.885406 10.625 0.885406C10.3316 0.885406 10.0938 1.12326 10.0938 1.41666V3.54166C10.0938 3.83506 10.3316 4.07291 10.625 4.07291C10.9184 4.07291 11.1562 3.83506 11.1562 3.54166V1.41666Z" stroke="#65BC47"/>
</svg>
