<svg width="17" height="17" viewBox="0 0 17 17" fill="none" xmlns="http://www.w3.org/2000/svg">
<path d="M3.58493 3.50974C4.03374 3.18366 4.57483 3.01477 5.3125 2.92731V3.54167C5.3125 4.12847 5.7882 4.60417 6.375 4.60417C6.9618 4.60417 7.4375 4.12847 7.4375 3.54167V2.83533C7.76624 2.83334 8.11949 2.83334 8.5 2.83334C8.88051 2.83334 9.23376 2.83334 9.5625 2.83533V3.54167C9.5625 4.12847 10.0382 4.60417 10.625 4.60417C11.2118 4.60417 11.6875 4.12847 11.6875 3.54167V2.92731C12.4252 3.01477 12.9663 3.18366 13.4151 3.50974C13.7157 3.72819 13.9802 3.9926 14.1986 4.29327C14.5984 4.84347 14.7618 5.53235 14.8287 6.55209H2.17128C2.23815 5.53235 2.40165 4.84347 2.8014 4.29327C3.01985 3.9926 3.28426 3.72819 3.58493 3.50974Z" fill="#65BC47"/>
<path fill-rule="evenodd" clip-rule="evenodd" d="M2.13258 7.61443C2.125 8.0862 2.125 8.61402 2.125 9.20834C2.125 11.8644 2.125 13.1924 2.8014 14.1234C3.01985 14.4241 3.28426 14.6885 3.58493 14.9069C4.51591 15.5833 5.84394 15.5833 8.5 15.5833C9.09425 15.5833 9.62203 15.5833 10.0937 15.5758L10.0937 15.5261C10.0937 14.9226 10.0937 14.555 10.1439 14.2379C10.4199 12.4951 11.7868 11.1283 13.5295 10.8522C13.8466 10.802 14.2142 10.802 14.8178 10.8021L14.8674 10.8021C14.875 10.3304 14.875 9.80259 14.875 9.20834C14.875 8.61402 14.875 8.08619 14.8674 7.61443L14.8544 7.61459H2.14541L2.13258 7.61443ZM6.375 9.38542C6.0816 9.38542 5.84375 9.62327 5.84375 9.91667C5.84375 10.2101 6.0816 10.4479 6.375 10.4479H10.625C10.9184 10.4479 11.1562 10.2101 11.1562 9.91667C11.1562 9.62327 10.9184 9.38542 10.625 9.38542H6.375Z" fill="#65BC47"/>
<path d="M13.4151 14.9069C12.8649 15.3067 12.176 15.4702 11.1563 15.5371C11.1563 14.8922 11.1587 14.6225 11.1933 14.4041C11.3973 13.1159 12.4076 12.1057 13.6957 11.9017C13.9142 11.8671 14.1839 11.8647 14.8287 11.8646C14.7618 12.8843 14.5983 13.5732 14.1986 14.1234C13.9802 14.4241 13.7157 14.6885 13.4151 14.9069Z" fill="#65BC47"/>
<path d="M6.90625 1.41667C6.90625 1.12327 6.6684 0.885422 6.375 0.885422C6.0816 0.885422 5.84375 1.12327 5.84375 1.41667V3.54167C5.84375 3.83507 6.0816 4.07292 6.375 4.07292C6.6684 4.07292 6.90625 3.83507 6.90625 3.54167V1.41667Z" fill="#65BC47"/>
<path d="M11.1562 1.41667C11.1562 1.12327 10.9184 0.885422 10.625 0.885422C10.3316 0.885422 10.0938 1.12327 10.0938 1.41667V3.54167C10.0938 3.83507 10.3316 4.07292 10.625 4.07292C10.9184 4.07292 11.1562 3.83507 11.1562 3.54167V1.41667Z" fill="#65BC47"/>
<path d="M3.58493 3.50974C4.03374 3.18366 4.57483 3.01477 5.3125 2.92731V3.54167C5.3125 4.12847 5.7882 4.60417 6.375 4.60417C6.9618 4.60417 7.4375 4.12847 7.4375 3.54167V2.83533C7.76624 2.83334 8.11949 2.83334 8.5 2.83334C8.88051 2.83334 9.23376 2.83334 9.5625 2.83533V3.54167C9.5625 4.12847 10.0382 4.60417 10.625 4.60417C11.2118 4.60417 11.6875 4.12847 11.6875 3.54167V2.92731C12.4252 3.01477 12.9663 3.18366 13.4151 3.50974C13.7157 3.72819 13.9802 3.9926 14.1986 4.29327C14.5984 4.84347 14.7618 5.53235 14.8287 6.55209H2.17128C2.23815 5.53235 2.40165 4.84347 2.8014 4.29327C3.01985 3.9926 3.28426 3.72819 3.58493 3.50974Z" stroke="#65BC47"/>
<path fill-rule="evenodd" clip-rule="evenodd" d="M2.13258 7.61443C2.125 8.0862 2.125 8.61402 2.125 9.20834C2.125 11.8644 2.125 13.1924 2.8014 14.1234C3.01985 14.4241 3.28426 14.6885 3.58493 14.9069C4.51591 15.5833 5.84394 15.5833 8.5 15.5833C9.09425 15.5833 9.62203 15.5833 10.0937 15.5758L10.0937 15.5261C10.0937 14.9226 10.0937 14.555 10.1439 14.2379C10.4199 12.4951 11.7868 11.1283 13.5295 10.8522C13.8466 10.802 14.2142 10.802 14.8178 10.8021L14.8674 10.8021C14.875 10.3304 14.875 9.80259 14.875 9.20834C14.875 8.61402 14.875 8.08619 14.8674 7.61443L14.8544 7.61459H2.14541L2.13258 7.61443ZM6.375 9.38542C6.0816 9.38542 5.84375 9.62327 5.84375 9.91667C5.84375 10.2101 6.0816 10.4479 6.375 10.4479H10.625C10.9184 10.4479 11.1562 10.2101 11.1562 9.91667C11.1562 9.62327 10.9184 9.38542 10.625 9.38542H6.375Z" stroke="#65BC47"/>
<path d="M13.4151 14.9069C12.8649 15.3067 12.176 15.4702 11.1563 15.5371C11.1563 14.8922 11.1587 14.6225 11.1933 14.4041C11.3973 13.1159 12.4076 12.1057 13.6957 11.9017C13.9142 11.8671 14.1839 11.8647 14.8287 11.8646C14.7618 12.8843 14.5983 13.5732 14.1986 14.1234C13.9802 14.4241 13.7157 14.6885 13.4151 14.9069Z" stroke="#65BC47"/>
<path d="M6.90625 1.41667C6.90625 1.12327 6.6684 0.885422 6.375 0.885422C6.0816 0.885422 5.84375 1.12327 5.84375 1.41667V3.54167C5.84375 3.83507 6.0816 4.07292 6.375 4.07292C6.6684 4.07292 6.90625 3.83507 6.90625 3.54167V1.41667Z" stroke="#65BC47"/>
<path d="M11.1562 1.41667C11.1562 1.12327 10.9184 0.885422 10.625 0.885422C10.3316 0.885422 10.0938 1.12327 10.0938 1.41667V3.54167C10.0938 3.83507 10.3316 4.07292 10.625 4.07292C10.9184 4.07292 11.1562 3.83507 11.1562 3.54167V1.41667Z" stroke="#65BC47"/>
</svg>
