<svg width="20" height="20" viewBox="0 0 20 20" fill="none" xmlns="http://www.w3.org/2000/svg">
<path d="M10.0013 1.66675C5.4063 1.66675 1.66797 5.40508 1.66797 10.0001C1.66797 14.5951 5.4063 18.3334 10.0013 18.3334C14.5963 18.3334 18.3346 14.5951 18.3346 10.0001C18.3346 5.40508 14.5963 1.66675 10.0013 1.66675ZM10.0013 16.6667C6.32547 16.6667 3.33464 13.6759 3.33464 10.0001C3.33464 6.32425 6.32547 3.33341 10.0013 3.33341C13.6771 3.33341 16.668 6.32425 16.668 10.0001C16.668 13.6759 13.6771 16.6667 10.0013 16.6667Z" fill="#C3D3E5"/>
<path d="M12.3577 12.3567C12.0531 12.6603 11.6933 12.903 11.2977 13.0717C10.5854 13.3724 9.79083 13.4163 9.0498 13.1959C8.30876 12.9754 7.66732 12.5044 7.23518 11.8633L5.85352 12.7958C6.21388 13.3276 6.67235 13.7858 7.20435 14.1458C7.74573 14.5119 8.354 14.7677 8.99435 14.8983C9.65835 15.0338 10.3429 15.0338 11.0068 14.8983C11.6471 14.7675 12.2554 14.5118 12.7968 14.1458C13.0577 13.9692 13.3068 13.7642 13.5352 13.5367C13.7618 13.3108 13.9685 13.0608 14.1468 12.7958L12.7652 11.8633C12.6454 12.0404 12.509 12.2056 12.3577 12.3567Z" fill="#C3D3E5"/>
<path d="M7.08203 10C7.77239 10 8.33203 9.44036 8.33203 8.75C8.33203 8.05964 7.77239 7.5 7.08203 7.5C6.39168 7.5 5.83203 8.05964 5.83203 8.75C5.83203 9.44036 6.39168 10 7.08203 10Z" fill="#C3D3E5"/>
<path d="M12.9121 9.98833C13.5993 9.98833 14.1563 9.4313 14.1563 8.74417C14.1563 8.05703 13.5993 7.5 12.9121 7.5C12.225 7.5 11.668 8.05703 11.668 8.74417C11.668 9.4313 12.225 9.98833 12.9121 9.98833Z" fill="#C3D3E5"/>
</svg>
