<svg width="34" height="34" viewBox="0 0 34 34" fill="none" xmlns="http://www.w3.org/2000/svg">
<rect width="34" height="34" rx="12" fill="#7EC5E7"/>
<path d="M24.2879 14.3301C24.7717 11.8074 22.5569 9.59259 20.0342 10.0764L12.7912 11.4655C11.2167 11.7675 9.95748 12.9593 9.55743 14.5079C8.75871 17.5998 11.6262 20.4256 14.705 19.5202C14.79 19.4952 14.869 19.5742 14.844 19.6592C13.9386 22.7381 16.7644 25.6056 19.8564 24.8069C21.405 24.4068 22.5968 23.1476 22.8988 21.5731L24.2879 14.3301Z" fill="white"/>
<path d="M10.4144 21.4308C10.6463 21.1989 10.6463 20.823 10.4144 20.5911C10.1826 20.3592 9.80661 20.3592 9.57474 20.5911L8.45516 21.7107C8.22328 21.9426 8.22328 22.3185 8.45516 22.5504C8.68703 22.7822 9.06297 22.7822 9.29484 22.5504L10.4144 21.4308Z" fill="white"/>
<path d="M13.2134 21.1509C13.4453 21.3828 13.4453 21.7587 13.2134 21.9906L12.0938 23.1102C11.8619 23.342 11.486 23.342 11.2541 23.1102C11.0222 22.8783 11.0222 22.5024 11.2541 22.2705L12.3737 21.1509C12.6056 20.919 12.9815 20.919 13.2134 21.1509Z" fill="white"/>
<path d="M13.7732 24.7895C14.0051 24.5577 14.0051 24.1817 13.7732 23.9499C13.5413 23.718 13.1654 23.718 12.9335 23.9499L11.8139 25.0694C11.582 25.3013 11.582 25.6773 11.8139 25.9091C12.0458 26.141 12.4217 26.141 12.6536 25.9091L13.7732 24.7895Z" fill="white"/>
</svg>
