<svg width="21" height="21" viewBox="0 0 21 21" fill="none" xmlns="http://www.w3.org/2000/svg">
<g filter="url(#filter0_b_4_1636)">
<path fill-rule="evenodd" clip-rule="evenodd" d="M6.09563 19.3906C10.0054 21.8067 14.8228 19.8427 17.0944 17.5711C20.9997 13.6658 20.9997 7.33418 17.0944 3.42893C13.1892 -0.476311 6.85752 -0.476311 2.95228 3.42893C0.58389 5.79732 -1.29244 10.5269 1.13203 14.4282C1.26629 14.6442 1.33344 14.7523 1.36627 14.8347C1.42886 14.9919 1.44725 15.1126 1.43431 15.2812C1.42752 15.3697 1.40161 15.4697 1.34979 15.6696C1.02378 16.9274 0.860777 17.5563 0.952984 18.0094C1.11302 18.7958 1.72759 19.4103 2.51396 19.5704C2.96704 19.6626 3.59593 19.4996 4.85373 19.1736C5.05359 19.1218 5.15357 19.0958 5.24178 19.089C5.41043 19.076 5.52971 19.094 5.68699 19.1563C5.76925 19.1889 5.87804 19.2561 6.09563 19.3906Z" fill="#828D99"/>
</g>
<path d="M7.05273 10.3578C7.05273 10.9101 6.60502 11.3578 6.05273 11.3578C5.50045 11.3578 5.05273 10.9101 5.05273 10.3578C5.05273 9.8055 5.50045 9.35779 6.05273 9.35779C6.60502 9.35779 7.05273 9.8055 7.05273 10.3578Z" fill="white"/>
<path d="M11.0527 10.3578C11.0527 10.9101 10.605 11.3578 10.0527 11.3578C9.50045 11.3578 9.05274 10.9101 9.05274 10.3578C9.05274 9.8055 9.50045 9.35779 10.0527 9.35779C10.605 9.35779 11.0527 9.8055 11.0527 10.3578Z" fill="white"/>
<path d="M14.0527 11.3578C14.605 11.3578 15.0527 10.9101 15.0527 10.3578C15.0527 9.8055 14.605 9.35779 14.0527 9.35779C13.5005 9.35779 13.0527 9.8055 13.0527 10.3578C13.0527 10.9101 13.5005 11.3578 14.0527 11.3578Z" fill="white"/>
<defs>
<filter id="filter0_b_4_1636" x="-24" y="-23.5" width="68.0234" height="67.9982" filterUnits="userSpaceOnUse" color-interpolation-filters="sRGB">
<feFlood flood-opacity="0" result="BackgroundImageFix"/>
<feGaussianBlur in="BackgroundImageFix" stdDeviation="12"/>
<feComposite in2="SourceAlpha" operator="in" result="effect1_backgroundBlur_4_1636"/>
<feBlend mode="normal" in="SourceGraphic" in2="effect1_backgroundBlur_4_1636" result="shape"/>
</filter>
</defs>
</svg>
