<svg width="70" height="55" viewBox="0 0 70 55" fill="none" xmlns="http://www.w3.org/2000/svg">
<g clip-path="url(#clip0_94_3348)">
<path d="M29.8093 15.5522C28.5117 14.2617 27.7084 12.4747 27.7084 10.5C27.7084 8.52533 28.5117 6.73828 29.8093 5.44782C29.0622 5.08099 28.2219 4.875 27.3334 4.875C24.2268 4.875 21.7084 7.3934 21.7084 10.5C21.7084 13.6066 24.2268 16.125 27.3334 16.125C28.2219 16.125 29.0622 15.919 29.8093 15.5522Z" fill="#828D99"/>
<path d="M29.2084 10.5C29.2084 7.3934 31.7268 4.875 34.8334 4.875C37.94 4.875 40.4584 7.3934 40.4584 10.5C40.4584 13.6066 37.94 16.125 34.8334 16.125C31.7268 16.125 29.2084 13.6066 29.2084 10.5Z" fill="#828D99"/>
<path d="M39.8574 5.44782C41.1551 6.73828 41.9584 8.52533 41.9584 10.5C41.9584 12.4747 41.1551 14.2617 39.8574 15.5522C40.6045 15.919 41.4449 16.125 42.3334 16.125C45.44 16.125 47.9584 13.6066 47.9584 10.5C47.9584 7.3934 45.44 4.875 42.3334 4.875C41.4449 4.875 40.6045 5.08099 39.8574 5.44782Z" fill="#828D99"/>
<path d="M24.7084 24C24.7084 20.8934 27.2268 18.375 30.3334 18.375H39.3334C42.44 18.375 44.9584 20.8934 44.9584 24C44.9584 27.1066 42.44 29.625 39.3334 29.625H30.3334C27.2268 29.625 24.7084 27.1066 24.7084 24Z" fill="#828D99"/>
<path d="M17.2084 22.5C17.2084 19.3934 19.7268 16.875 22.8334 16.875H30.3334C26.3983 16.875 23.2084 20.065 23.2084 24C23.2084 25.5373 23.6952 26.9609 24.5232 28.125H22.8334C19.7268 28.125 17.2084 25.6066 17.2084 22.5Z" fill="#828D99"/>
<path d="M46.4584 24C46.4584 25.5373 45.9715 26.9609 45.1435 28.125H46.8334C49.94 28.125 52.4584 25.6066 52.4584 22.5C52.4584 19.3934 49.94 16.875 46.8334 16.875H39.3334C43.2684 16.875 46.4584 20.065 46.4584 24Z" fill="#828D99"/>
</g>
<path d="M9.30212 51H7.3949L3.2865 45.9277V51H1.64587V41.0059H3.2865V45.8457L7.3197 41.0059H9.11072L5.07751 45.832L9.30212 51ZM17.1635 47.1992C17.1635 47.8281 17.0814 48.3864 16.9174 48.874C16.7533 49.3617 16.514 49.7741 16.1996 50.1113C15.8851 50.444 15.5069 50.6992 15.0648 50.877C14.6228 51.0501 14.1237 51.1367 13.5677 51.1367C13.0482 51.1367 12.572 51.0501 12.139 50.877C11.7061 50.6992 11.3301 50.444 11.0111 50.1113C10.6967 49.7741 10.4528 49.3617 10.2797 48.874C10.1065 48.3864 10.0199 47.8281 10.0199 47.1992C10.0199 46.3652 10.1635 45.6589 10.4506 45.0801C10.7422 44.4967 11.1569 44.0524 11.6947 43.7471C12.2325 43.4417 12.8728 43.2891 13.6156 43.2891C14.3129 43.2891 14.9281 43.4417 15.4613 43.7471C15.9945 44.0524 16.4115 44.4967 16.7123 45.0801C17.0131 45.6634 17.1635 46.3698 17.1635 47.1992ZM11.6742 47.1992C11.6742 47.7507 11.7403 48.2223 11.8724 48.6143C12.0092 49.0062 12.2188 49.307 12.5013 49.5166C12.7839 49.7217 13.1485 49.8242 13.5951 49.8242C14.0417 49.8242 14.4063 49.7217 14.6888 49.5166C14.9714 49.307 15.1788 49.0062 15.3109 48.6143C15.4431 48.2223 15.5092 47.7507 15.5092 47.1992C15.5092 46.6478 15.4431 46.1807 15.3109 45.7979C15.1788 45.4105 14.9714 45.1165 14.6888 44.916C14.4063 44.7109 14.0394 44.6084 13.5883 44.6084C12.9229 44.6084 12.4375 44.8317 12.1322 45.2783C11.8269 45.7249 11.6742 46.3652 11.6742 47.1992ZM20.6224 43.4326V46.4746H24.1635V43.4326H25.7767V51H24.1635V47.7324H20.6224V51H19.0092V43.4326H20.6224ZM33.7885 44.6973H31.3002V51H29.7006V44.6973H27.226V43.4326H33.7885V44.6973ZM38.2181 43.2891C39.1752 43.2891 39.8975 43.501 40.3851 43.9248C40.8773 44.3486 41.1234 45.0094 41.1234 45.9072V51H39.9818L39.6742 49.9268H39.6195C39.4053 50.2002 39.1843 50.4258 38.9564 50.6035C38.7286 50.7812 38.4642 50.9134 38.1635 51C37.8672 51.0911 37.5049 51.1367 37.0765 51.1367C36.6254 51.1367 36.222 51.0547 35.8666 50.8906C35.5111 50.722 35.2308 50.4668 35.0258 50.125C34.8207 49.7832 34.7181 49.3503 34.7181 48.8262C34.7181 48.0469 35.0075 47.4613 35.5863 47.0693C36.1696 46.6774 37.0492 46.4609 38.225 46.4199L39.5375 46.3721V45.9756C39.5375 45.4515 39.4144 45.0778 39.1683 44.8545C38.9268 44.6312 38.585 44.5195 38.1429 44.5195C37.7647 44.5195 37.3978 44.5742 37.0424 44.6836C36.6869 44.793 36.3405 44.9274 36.0033 45.0869L35.4838 43.9521C35.8529 43.7562 36.2722 43.5967 36.7416 43.4736C37.2155 43.3506 37.7077 43.2891 38.2181 43.2891ZM39.5306 47.3838L38.5531 47.418C37.751 47.4453 37.1882 47.582 36.8646 47.8281C36.5411 48.0742 36.3793 48.4115 36.3793 48.8398C36.3793 49.2135 36.4909 49.487 36.7142 49.6602C36.9375 49.8288 37.2315 49.9131 37.5961 49.9131C38.1521 49.9131 38.6123 49.7559 38.9769 49.4414C39.3461 49.1224 39.5306 48.6553 39.5306 48.04V47.3838ZM48.0619 43.4326H49.8324L46.7015 47.0693L50.099 51H48.2465L44.9857 47.1582V51H43.3724V43.4326H44.9857V47.1035L48.0619 43.4326ZM57.0443 44.6973H54.556V51H52.9564V44.6973H50.4818V43.4326H57.0443V44.6973ZM58.5072 51V43.4326H60.1205V46.4541H61.6449C62.3558 46.4541 62.9414 46.5361 63.4017 46.7002C63.862 46.8597 64.2038 47.1012 64.4271 47.4248C64.6504 47.7484 64.7621 48.154 64.7621 48.6416C64.7621 49.1201 64.655 49.5371 64.4408 49.8926C64.2266 50.2435 63.8916 50.5169 63.4359 50.7129C62.9802 50.9043 62.3832 51 61.6449 51H58.5072ZM60.1205 49.8174H61.5355C62.0186 49.8174 62.4082 49.7308 62.7045 49.5576C63.0052 49.3799 63.1556 49.0882 63.1556 48.6826C63.1556 48.3044 63.0166 48.0378 62.7386 47.8828C62.4652 47.7233 62.0642 47.6436 61.5355 47.6436H60.1205V49.8174ZM65.931 51V43.4326H67.5443V51H65.931Z" fill="#828D99"/>
<defs>
<clipPath id="clip0_94_3348">
<rect width="36" height="36" fill="white" transform="translate(16.8334)"/>
</clipPath>
</defs>
</svg>
