<svg width="70" height="55" viewBox="0 0 70 55" fill="none" xmlns="http://www.w3.org/2000/svg">
<g clip-path="url(#clip0_84_690)">
<path d="M29.8094 15.5522C28.5118 14.2617 27.7085 12.4747 27.7085 10.5C27.7085 8.52533 28.5118 6.73828 29.8094 5.44782C29.0623 5.08099 28.222 4.875 27.3335 4.875C24.2269 4.875 21.7085 7.3934 21.7085 10.5C21.7085 13.6066 24.2269 16.125 27.3335 16.125C28.222 16.125 29.0623 15.919 29.8094 15.5522Z" fill="#F0F0F0"/>
<path d="M29.2085 10.5C29.2085 7.3934 31.7269 4.875 34.8335 4.875C37.9401 4.875 40.4585 7.3934 40.4585 10.5C40.4585 13.6066 37.9401 16.125 34.8335 16.125C31.7269 16.125 29.2085 13.6066 29.2085 10.5Z" fill="#F0F0F0"/>
<path d="M39.8575 5.44782C41.1552 6.73828 41.9585 8.52533 41.9585 10.5C41.9585 12.4747 41.1552 14.2617 39.8575 15.5522C40.6046 15.919 41.445 16.125 42.3335 16.125C45.4401 16.125 47.9585 13.6066 47.9585 10.5C47.9585 7.3934 45.4401 4.875 42.3335 4.875C41.445 4.875 40.6046 5.08099 39.8575 5.44782Z" fill="#F0F0F0"/>
<path d="M24.7085 24C24.7085 20.8934 27.2269 18.375 30.3335 18.375H39.3335C42.4401 18.375 44.9585 20.8934 44.9585 24C44.9585 27.1066 42.4401 29.625 39.3335 29.625H30.3335C27.2269 29.625 24.7085 27.1066 24.7085 24Z" fill="#F0F0F0"/>
<path d="M17.2085 22.5C17.2085 19.3934 19.7269 16.875 22.8335 16.875H30.3335C26.3985 16.875 23.2085 20.065 23.2085 24C23.2085 25.5373 23.6954 26.9609 24.5233 28.125H22.8335C19.7269 28.125 17.2085 25.6066 17.2085 22.5Z" fill="#F0F0F0"/>
<path d="M46.4585 24C46.4585 25.5373 45.9716 26.9609 45.1437 28.125H46.8335C49.9401 28.125 52.4585 25.6066 52.4585 22.5C52.4585 19.3934 49.9401 16.875 46.8335 16.875H39.3335C43.2685 16.875 46.4585 20.065 46.4585 24Z" fill="#F0F0F0"/>
</g>
<path d="M9.30225 51H7.39502L3.28662 45.9277V51H1.646V41.0059H3.28662V45.8457L7.31982 41.0059H9.11084L5.07764 45.832L9.30225 51ZM17.1636 47.1992C17.1636 47.8281 17.0815 48.3864 16.9175 48.874C16.7534 49.3617 16.5142 49.7741 16.1997 50.1113C15.8853 50.444 15.507 50.6992 15.0649 50.877C14.6229 51.0501 14.1239 51.1367 13.5679 51.1367C13.0483 51.1367 12.5721 51.0501 12.1392 50.877C11.7062 50.6992 11.3302 50.444 11.0112 50.1113C10.6968 49.7741 10.453 49.3617 10.2798 48.874C10.1066 48.3864 10.02 47.8281 10.02 47.1992C10.02 46.3652 10.1636 45.6589 10.4507 45.0801C10.7424 44.4967 11.1571 44.0524 11.6948 43.7471C12.2326 43.4417 12.8729 43.2891 13.6157 43.2891C14.313 43.2891 14.9282 43.4417 15.4614 43.7471C15.9946 44.0524 16.4116 44.4967 16.7124 45.0801C17.0132 45.6634 17.1636 46.3698 17.1636 47.1992ZM11.6743 47.1992C11.6743 47.7507 11.7404 48.2223 11.8726 48.6143C12.0093 49.0062 12.2189 49.307 12.5015 49.5166C12.784 49.7217 13.1486 49.8242 13.5952 49.8242C14.0418 49.8242 14.4064 49.7217 14.689 49.5166C14.9715 49.307 15.1789 49.0062 15.311 48.6143C15.4432 48.2223 15.5093 47.7507 15.5093 47.1992C15.5093 46.6478 15.4432 46.1807 15.311 45.7979C15.1789 45.4105 14.9715 45.1165 14.689 44.916C14.4064 44.7109 14.0396 44.6084 13.5884 44.6084C12.923 44.6084 12.4377 44.8317 12.1323 45.2783C11.827 45.7249 11.6743 46.3652 11.6743 47.1992ZM20.6226 43.4326V46.4746H24.1636V43.4326H25.7769V51H24.1636V47.7324H20.6226V51H19.0093V43.4326H20.6226ZM33.7886 44.6973H31.3003V51H29.7007V44.6973H27.2261V43.4326H33.7886V44.6973ZM38.2183 43.2891C39.1753 43.2891 39.8976 43.501 40.3853 43.9248C40.8774 44.3486 41.1235 45.0094 41.1235 45.9072V51H39.9819L39.6743 49.9268H39.6196C39.4054 50.2002 39.1844 50.4258 38.9565 50.6035C38.7287 50.7812 38.4644 50.9134 38.1636 51C37.8674 51.0911 37.505 51.1367 37.0767 51.1367C36.6255 51.1367 36.2222 51.0547 35.8667 50.8906C35.5112 50.722 35.231 50.4668 35.0259 50.125C34.8208 49.7832 34.7183 49.3503 34.7183 48.8262C34.7183 48.0469 35.0076 47.4613 35.5864 47.0693C36.1698 46.6774 37.0493 46.4609 38.2251 46.4199L39.5376 46.3721V45.9756C39.5376 45.4515 39.4146 45.0778 39.1685 44.8545C38.9269 44.6312 38.5851 44.5195 38.1431 44.5195C37.7648 44.5195 37.3979 44.5742 37.0425 44.6836C36.687 44.793 36.3407 44.9274 36.0034 45.0869L35.4839 43.9521C35.853 43.7562 36.2723 43.5967 36.7417 43.4736C37.2157 43.3506 37.7078 43.2891 38.2183 43.2891ZM39.5308 47.3838L38.5532 47.418C37.7511 47.4453 37.1883 47.582 36.8647 47.8281C36.5412 48.0742 36.3794 48.4115 36.3794 48.8398C36.3794 49.2135 36.491 49.487 36.7144 49.6602C36.9377 49.8288 37.2316 49.9131 37.5962 49.9131C38.1522 49.9131 38.6125 49.7559 38.9771 49.4414C39.3462 49.1224 39.5308 48.6553 39.5308 48.04V47.3838ZM48.062 43.4326H49.8325L46.7017 47.0693L50.0991 51H48.2466L44.9858 47.1582V51H43.3726V43.4326H44.9858V47.1035L48.062 43.4326ZM57.0444 44.6973H54.5562V51H52.9565V44.6973H50.4819V43.4326H57.0444V44.6973ZM58.5073 51V43.4326H60.1206V46.4541H61.645C62.356 46.4541 62.9416 46.5361 63.4019 46.7002C63.8621 46.8597 64.2039 47.1012 64.4272 47.4248C64.6506 47.7484 64.7622 48.154 64.7622 48.6416C64.7622 49.1201 64.6551 49.5371 64.4409 49.8926C64.2267 50.2435 63.8918 50.5169 63.436 50.7129C62.9803 50.9043 62.3833 51 61.645 51H58.5073ZM60.1206 49.8174H61.5356C62.0187 49.8174 62.4084 49.7308 62.7046 49.5576C63.0054 49.3799 63.1558 49.0882 63.1558 48.6826C63.1558 48.3044 63.0168 48.0378 62.7388 47.8828C62.4653 47.7233 62.0643 47.6436 61.5356 47.6436H60.1206V49.8174ZM65.9312 51V43.4326H67.5444V51H65.9312Z" fill="#F0F0F0"/>
<defs>
<clipPath id="clip0_84_690">
<rect width="36" height="36" fill="white" transform="translate(16.8335)"/>
</clipPath>
</defs>
</svg>
