<svg width="16" height="16" viewBox="0 0 16 16" fill="none" xmlns="http://www.w3.org/2000/svg">
<rect width="16" height="16" rx="6" fill="#66A67E"/>
<path fill-rule="evenodd" clip-rule="evenodd" d="M8.77864 5.20094C8.93425 5.05342 9.18542 5.05449 9.33965 5.20333C9.49388 5.35218 9.49275 5.59243 9.33715 5.73995L8.40467 6.62396C8.02622 6.98273 7.76663 7.22965 7.59097 7.43886C7.42034 7.64209 7.3618 7.77263 7.34622 7.88954C7.33644 7.96295 7.33644 8.03723 7.34622 8.11064C7.3618 8.22755 7.42034 8.35808 7.59097 8.56131C7.76663 8.77053 8.02622 9.01744 8.40467 9.37622L9.33715 10.2602C9.49275 10.4077 9.49387 10.648 9.33965 10.7968C9.18542 10.9457 8.93425 10.9468 8.77864 10.7992L7.82936 9.8993C7.47183 9.56036 7.17961 9.28333 6.97237 9.0365C6.75687 8.77983 6.60088 8.51931 6.5592 8.20659C6.54093 8.06947 6.54093 7.93071 6.5592 7.79359C6.60087 7.48087 6.75687 7.22034 6.97237 6.96367C7.17961 6.71684 7.47182 6.43983 7.82936 6.10088L8.77864 5.20094Z" fill="white"/>
</svg>
