<svg width="16" height="16" viewBox="0 0 16 16" fill="none" xmlns="http://www.w3.org/2000/svg">
<rect width="16" height="16" rx="6" fill="#66A67E"/>
<path fill-rule="evenodd" clip-rule="evenodd" d="M7.58513 5.20094C7.42952 5.05342 7.17835 5.05449 7.02412 5.20333C6.86989 5.35218 6.87101 5.59243 7.02662 5.73995L7.9591 6.62396C8.33755 6.98273 8.59714 7.22965 8.7728 7.43886C8.94343 7.64209 9.00197 7.77263 9.01755 7.88954C9.02733 7.96295 9.02733 8.03723 9.01755 8.11064C9.00197 8.22755 8.94343 8.35808 8.7728 8.56131C8.59714 8.77053 8.33755 9.01744 7.9591 9.37622L7.02662 10.2602C6.87102 10.4078 6.86989 10.648 7.02412 10.7968C7.17835 10.9457 7.42952 10.9468 7.58513 10.7992L8.5344 9.8993C8.89194 9.56036 9.18416 9.28333 9.3914 9.0365C9.6069 8.77983 9.76289 8.51931 9.80457 8.20659C9.82284 8.06947 9.82284 7.93071 9.80457 7.79359C9.76289 7.48087 9.6069 7.22034 9.3914 6.96367C9.18416 6.71685 8.89195 6.43983 8.53441 6.10088L7.58513 5.20094Z" fill="white"/>
</svg>
