<svg width="62" height="55" viewBox="0 0 62 55" fill="none" xmlns="http://www.w3.org/2000/svg">
<path fill-rule="evenodd" clip-rule="evenodd" d="M24.0267 1.07213C23.7488 0.516402 23.0731 0.29115 22.5173 0.569013C21.9616 0.846875 21.7364 1.52263 22.0142 2.07836L22.0934 2.23672C22.3573 2.76458 22.3573 3.38591 22.0934 3.91377L22.0142 4.07213C21.7364 4.62785 21.9616 5.30361 22.5173 5.58147C23.0731 5.85934 23.7488 5.63408 24.0267 5.07836L24.1059 4.92C24.6865 3.7587 24.6865 2.39179 24.1059 1.23049L24.0267 1.07213ZM36.0267 1.07213C35.7488 0.516404 35.0731 0.29115 34.5174 0.569012C33.9616 0.846873 33.7364 1.52263 34.0142 2.07836L34.0934 2.23672C34.3573 2.76458 34.3573 3.38591 34.0934 3.91377L34.0142 4.07212C33.7364 4.62785 33.9616 5.30361 34.5173 5.58147C35.0731 5.85934 35.7488 5.63409 36.0267 5.07836L36.1059 4.92C36.6865 3.7587 36.6865 2.39179 36.1059 1.23049L36.0267 1.07213ZM30.0267 2.07836C30.3046 1.52263 30.0793 0.846877 29.5236 0.569014C28.9679 0.29115 28.2921 0.516401 28.0142 1.07213L27.9351 1.23049C27.3544 2.39179 27.3544 3.7587 27.9351 4.92L28.0142 5.07836C28.2921 5.63408 28.9679 5.85934 29.5236 5.58147C30.0793 5.30361 30.3046 4.62786 30.0267 4.07213L29.9475 3.91377C29.6836 3.3859 29.6836 2.76458 29.9475 2.23672L30.0267 2.07836ZM28.5411 6.37536H29.0521C31.6831 6.37495 33.282 6.37471 34.5618 6.78252C37.7095 7.78556 40.0078 10.4985 40.4797 13.7684C40.5555 14.2935 40.5603 14.8572 40.5117 15.507C43.0342 16.0624 44.9216 18.311 44.9216 21.0004C44.9216 24.107 42.4032 26.6254 39.2966 26.6254C39.1137 26.6254 38.9327 26.6166 38.7539 26.5995L38.6241 27.3786L38.6241 27.3786C38.4607 28.3589 38.361 28.9578 38.2031 29.4831C37.2225 32.7456 34.4134 35.1252 31.0341 35.5561C30.49 35.6255 29.8829 35.6255 28.8892 35.6254H28.7041C27.7104 35.6255 27.1031 35.6255 26.559 35.5561C23.1797 35.1252 20.3707 32.7456 19.3901 29.4831C19.2322 28.9578 19.1324 28.3588 18.9691 27.3785L17.6176 19.2701C17.1847 16.6749 16.9216 15.0978 17.1135 13.7684C17.5854 10.4985 19.8836 7.78556 23.0314 6.78252C23.5451 6.61883 24.1101 6.52089 24.7727 6.46231V13.5752H24.3977C23.5693 13.5752 22.8977 14.2468 22.8977 15.0752V18.0752C22.8977 18.9036 23.5693 19.5752 24.3977 19.5752H27.3977C28.2262 19.5752 28.8977 18.9036 28.8977 18.0752V15.0752C28.8977 14.2468 28.2262 13.5752 27.3977 13.5752H27.0227V6.37883C27.4883 6.3752 27.9922 6.37528 28.5411 6.37536ZM39.1253 24.3711C39.182 24.374 39.2391 24.3754 39.2966 24.3754C41.1605 24.3754 42.6716 22.8643 42.6716 21.0004C42.6716 19.4582 41.6372 18.1576 40.2244 17.7545C40.151 18.2182 40.0673 18.7199 39.9761 19.2668L39.9759 19.2679L39.9757 19.2689L39.1253 24.3711Z" fill="#F0F0F0"/>
<path d="M1.3125 51V41.0059H8.98926V51H7.3623V42.4004H2.95312V51H1.3125ZM13.0156 43.4326V47.2949C13.0156 47.418 13.0111 47.5752 13.002 47.7666C12.9974 47.9535 12.9883 48.1494 12.9746 48.3545C12.9609 48.555 12.9473 48.7396 12.9336 48.9082C12.9199 49.0768 12.9085 49.2021 12.8994 49.2842L16.707 43.4326H18.6621V51H17.124V47.1787C17.124 46.9782 17.1286 46.7458 17.1377 46.4814C17.1514 46.2171 17.165 45.9619 17.1787 45.7158C17.1969 45.4697 17.2083 45.2829 17.2129 45.1553L13.4189 51H11.4707V43.4326H13.0156ZM26.6875 44.6973H24.1992V51H22.5996V44.6973H20.125V43.4326H26.6875V44.6973ZM31.1172 43.2891C32.0742 43.2891 32.7965 43.501 33.2842 43.9248C33.7764 44.3486 34.0225 45.0094 34.0225 45.9072V51H32.8809L32.5732 49.9268H32.5186C32.3044 50.2002 32.0833 50.4258 31.8555 50.6035C31.6276 50.7812 31.3633 50.9134 31.0625 51C30.7663 51.0911 30.404 51.1367 29.9756 51.1367C29.5244 51.1367 29.1211 51.0547 28.7656 50.8906C28.4102 50.722 28.1299 50.4668 27.9248 50.125C27.7197 49.7832 27.6172 49.3503 27.6172 48.8262C27.6172 48.0469 27.9066 47.4613 28.4854 47.0693C29.0687 46.6774 29.9482 46.4609 31.124 46.4199L32.4365 46.3721V45.9756C32.4365 45.4515 32.3135 45.0778 32.0674 44.8545C31.8258 44.6312 31.484 44.5195 31.042 44.5195C30.6637 44.5195 30.2969 44.5742 29.9414 44.6836C29.5859 44.793 29.2396 44.9274 28.9023 45.0869L28.3828 43.9521C28.752 43.7562 29.1712 43.5967 29.6406 43.4736C30.1146 43.3506 30.6068 43.2891 31.1172 43.2891ZM32.4297 47.3838L31.4521 47.418C30.6501 47.4453 30.0872 47.582 29.7637 47.8281C29.4401 48.0742 29.2783 48.4115 29.2783 48.8398C29.2783 49.2135 29.39 49.487 29.6133 49.6602C29.8366 49.8288 30.1305 49.9131 30.4951 49.9131C31.0511 49.9131 31.5114 49.7559 31.876 49.4414C32.2451 49.1224 32.4297 48.6553 32.4297 48.04V47.3838ZM37.8848 43.4326V46.4746H41.4258V43.4326H43.0391V51H41.4258V47.7324H37.8848V51H36.2715V43.4326H37.8848ZM46.8809 43.4326V47.2949C46.8809 47.418 46.8763 47.5752 46.8672 47.7666C46.8626 47.9535 46.8535 48.1494 46.8398 48.3545C46.8262 48.555 46.8125 48.7396 46.7988 48.9082C46.7852 49.0768 46.7738 49.2021 46.7646 49.2842L50.5723 43.4326H52.5273V51H50.9893V47.1787C50.9893 46.9782 50.9938 46.7458 51.0029 46.4814C51.0166 46.2171 51.0303 45.9619 51.0439 45.7158C51.0622 45.4697 51.0736 45.2829 51.0781 45.1553L47.2842 51H45.3359V43.4326H46.8809ZM57.8525 43.2891C58.527 43.2891 59.1058 43.4281 59.5889 43.7061C60.0719 43.984 60.4434 44.3783 60.7031 44.8887C60.9629 45.3991 61.0928 46.0098 61.0928 46.7207V47.582H56.041C56.0592 48.3158 56.2552 48.8809 56.6289 49.2773C57.0072 49.6738 57.5358 49.8721 58.2148 49.8721C58.6979 49.8721 59.1309 49.8265 59.5137 49.7354C59.901 49.6396 60.2998 49.5007 60.71 49.3184V50.624C60.3317 50.8018 59.9466 50.9316 59.5547 51.0137C59.1628 51.0957 58.6934 51.1367 58.1465 51.1367C57.4036 51.1367 56.7497 50.9932 56.1846 50.7061C55.624 50.4144 55.1842 49.9814 54.8652 49.4072C54.5508 48.833 54.3936 48.1198 54.3936 47.2676C54.3936 46.4199 54.5371 45.6999 54.8242 45.1074C55.1113 44.515 55.5146 44.0638 56.0342 43.7539C56.5537 43.444 57.1598 43.2891 57.8525 43.2891ZM57.8525 44.499C57.3467 44.499 56.9365 44.6631 56.6221 44.9912C56.3122 45.3193 56.1299 45.8001 56.0752 46.4336H59.5205C59.516 46.0553 59.4521 45.7204 59.3291 45.4287C59.2106 45.137 59.0283 44.9092 58.7822 44.7451C58.5407 44.5811 58.2308 44.499 57.8525 44.499Z" fill="#F0F0F0"/>
</svg>
