<svg width="62" height="55" viewBox="0 0 62 55" fill="none" xmlns="http://www.w3.org/2000/svg">
<path fill-rule="evenodd" clip-rule="evenodd" d="M24.0269 1.07212C23.7491 0.516395 23.0733 0.291142 22.5176 0.569005C21.9619 0.846868 21.7366 1.52262 22.0145 2.07835L22.0937 2.23671C22.3576 2.76457 22.3576 3.3859 22.0937 3.91376L22.0145 4.07212C21.7366 4.62785 21.9619 5.3036 22.5176 5.58147C23.0733 5.85933 23.7491 5.63408 24.0269 5.07835L24.1061 4.91999C24.6868 3.75869 24.6868 2.39178 24.1061 1.23048L24.0269 1.07212ZM36.0269 1.07212C35.7491 0.516396 35.0733 0.291142 34.5176 0.569004C33.9619 0.846866 33.7366 1.52262 34.0145 2.07835L34.0937 2.23671C34.3576 2.76457 34.3576 3.3859 34.0937 3.91376L34.0145 4.07212C33.7366 4.62784 33.9619 5.3036 34.5176 5.58146C35.0733 5.85933 35.7491 5.63408 36.0269 5.07836L36.1061 4.91999C36.6868 3.75869 36.6868 2.39178 36.1061 1.23048L36.0269 1.07212ZM30.0269 2.07835C30.3048 1.52263 30.0796 0.84687 29.5238 0.569006C28.9681 0.291142 28.2923 0.516394 28.0145 1.07212L27.9353 1.23048C27.3546 2.39178 27.3546 3.75869 27.9353 4.91999L28.0145 5.07835C28.2923 5.63408 28.9681 5.85933 29.5238 5.58147C30.0795 5.3036 30.3048 4.62785 30.0269 4.07212L29.9478 3.91376C29.6838 3.3859 29.6838 2.76457 29.9478 2.23671L30.0269 2.07835ZM28.5413 6.37535H29.0523C31.6833 6.37495 33.2822 6.3747 34.562 6.78251C37.7098 7.78556 40.008 10.4985 40.4799 13.7684C40.5557 14.2934 40.5605 14.8572 40.5119 15.507C43.0344 16.0624 44.9218 18.311 44.9218 21.0004C44.9218 24.107 42.4034 26.6254 39.2968 26.6254C39.1139 26.6254 38.9329 26.6166 38.7542 26.5995L38.6243 27.3786L38.6243 27.3786C38.461 28.3589 38.3612 28.9578 38.2033 29.4831C37.2227 32.7456 34.4137 35.1252 31.0344 35.5561C30.4903 35.6255 29.8831 35.6254 28.8894 35.6254H28.7043C27.7106 35.6254 27.1033 35.6255 26.5593 35.5561C23.18 35.1252 20.3709 32.7456 19.3903 29.4831C19.2324 28.9578 19.1326 28.3588 18.9693 27.3785L17.6179 19.27C17.1849 16.6749 16.9218 15.0978 17.1137 13.7684C17.5856 10.4985 19.8839 7.78556 23.0316 6.78251C23.5453 6.61883 24.1104 6.52088 24.773 6.4623V13.5752H24.398C23.5696 13.5752 22.898 14.2468 22.898 15.0752V18.0752C22.898 18.9036 23.5696 19.5752 24.398 19.5752H27.398C28.2264 19.5752 28.898 18.9036 28.898 18.0752V15.0752C28.898 14.2468 28.2264 13.5752 27.398 13.5752H27.023V6.37882C27.4885 6.37519 27.9925 6.37527 28.5413 6.37535ZM39.1255 24.3711C39.1822 24.374 39.2393 24.3754 39.2968 24.3754C41.1608 24.3754 42.6718 22.8643 42.6718 21.0004C42.6718 19.4582 41.6375 18.1576 40.2247 17.7545C40.1512 18.2182 40.0675 18.7199 39.9763 19.2668L39.9761 19.2679L39.9759 19.2689L39.1255 24.3711Z" fill="#828D99"/>
<path d="M1.3125 51V41.0059H8.98926V51H7.3623V42.4004H2.95312V51H1.3125ZM13.0156 43.4326V47.2949C13.0156 47.418 13.0111 47.5752 13.002 47.7666C12.9974 47.9535 12.9883 48.1494 12.9746 48.3545C12.9609 48.555 12.9473 48.7396 12.9336 48.9082C12.9199 49.0768 12.9085 49.2021 12.8994 49.2842L16.707 43.4326H18.6621V51H17.124V47.1787C17.124 46.9782 17.1286 46.7458 17.1377 46.4814C17.1514 46.2171 17.165 45.9619 17.1787 45.7158C17.1969 45.4697 17.2083 45.2829 17.2129 45.1553L13.4189 51H11.4707V43.4326H13.0156ZM26.6875 44.6973H24.1992V51H22.5996V44.6973H20.125V43.4326H26.6875V44.6973ZM31.1172 43.2891C32.0742 43.2891 32.7965 43.501 33.2842 43.9248C33.7764 44.3486 34.0225 45.0094 34.0225 45.9072V51H32.8809L32.5732 49.9268H32.5186C32.3044 50.2002 32.0833 50.4258 31.8555 50.6035C31.6276 50.7812 31.3633 50.9134 31.0625 51C30.7663 51.0911 30.404 51.1367 29.9756 51.1367C29.5244 51.1367 29.1211 51.0547 28.7656 50.8906C28.4102 50.722 28.1299 50.4668 27.9248 50.125C27.7197 49.7832 27.6172 49.3503 27.6172 48.8262C27.6172 48.0469 27.9066 47.4613 28.4854 47.0693C29.0687 46.6774 29.9482 46.4609 31.124 46.4199L32.4365 46.3721V45.9756C32.4365 45.4515 32.3135 45.0778 32.0674 44.8545C31.8258 44.6312 31.484 44.5195 31.042 44.5195C30.6637 44.5195 30.2969 44.5742 29.9414 44.6836C29.5859 44.793 29.2396 44.9274 28.9023 45.0869L28.3828 43.9521C28.752 43.7562 29.1712 43.5967 29.6406 43.4736C30.1146 43.3506 30.6068 43.2891 31.1172 43.2891ZM32.4297 47.3838L31.4521 47.418C30.6501 47.4453 30.0872 47.582 29.7637 47.8281C29.4401 48.0742 29.2783 48.4115 29.2783 48.8398C29.2783 49.2135 29.39 49.487 29.6133 49.6602C29.8366 49.8288 30.1305 49.9131 30.4951 49.9131C31.0511 49.9131 31.5114 49.7559 31.876 49.4414C32.2451 49.1224 32.4297 48.6553 32.4297 48.04V47.3838ZM37.8848 43.4326V46.4746H41.4258V43.4326H43.0391V51H41.4258V47.7324H37.8848V51H36.2715V43.4326H37.8848ZM46.8809 43.4326V47.2949C46.8809 47.418 46.8763 47.5752 46.8672 47.7666C46.8626 47.9535 46.8535 48.1494 46.8398 48.3545C46.8262 48.555 46.8125 48.7396 46.7988 48.9082C46.7852 49.0768 46.7738 49.2021 46.7646 49.2842L50.5723 43.4326H52.5273V51H50.9893V47.1787C50.9893 46.9782 50.9938 46.7458 51.0029 46.4814C51.0166 46.2171 51.0303 45.9619 51.0439 45.7158C51.0622 45.4697 51.0736 45.2829 51.0781 45.1553L47.2842 51H45.3359V43.4326H46.8809ZM57.8525 43.2891C58.527 43.2891 59.1058 43.4281 59.5889 43.7061C60.0719 43.984 60.4434 44.3783 60.7031 44.8887C60.9629 45.3991 61.0928 46.0098 61.0928 46.7207V47.582H56.041C56.0592 48.3158 56.2552 48.8809 56.6289 49.2773C57.0072 49.6738 57.5358 49.8721 58.2148 49.8721C58.6979 49.8721 59.1309 49.8265 59.5137 49.7354C59.901 49.6396 60.2998 49.5007 60.71 49.3184V50.624C60.3317 50.8018 59.9466 50.9316 59.5547 51.0137C59.1628 51.0957 58.6934 51.1367 58.1465 51.1367C57.4036 51.1367 56.7497 50.9932 56.1846 50.7061C55.624 50.4144 55.1842 49.9814 54.8652 49.4072C54.5508 48.833 54.3936 48.1198 54.3936 47.2676C54.3936 46.4199 54.5371 45.6999 54.8242 45.1074C55.1113 44.515 55.5146 44.0638 56.0342 43.7539C56.5537 43.444 57.1598 43.2891 57.8525 43.2891ZM57.8525 44.499C57.3467 44.499 56.9365 44.6631 56.6221 44.9912C56.3122 45.3193 56.1299 45.8001 56.0752 46.4336H59.5205C59.516 46.0553 59.4521 45.7204 59.3291 45.4287C59.2106 45.137 59.0283 44.9092 58.7822 44.7451C58.5407 44.5811 58.2308 44.499 57.8525 44.499Z" fill="#828D99"/>
</svg>
