<svg width="24" height="25" viewBox="0 0 24 25" fill="none" xmlns="http://www.w3.org/2000/svg">
<g clip-path="url(#clip0_4_1629)">
<g filter="url(#filter0_b_4_1629)">
<path fill-rule="evenodd" clip-rule="evenodd" d="M10.3993 4.64593C8.72567 3.58425 6.02273 2.58032 3.68853 4.96071C-1.85248 10.6114 7.64984 21.5 12 21.5C16.3501 21.5 25.8525 10.6114 20.3115 4.96072C17.9773 2.58035 15.2744 3.58427 13.6007 4.64593C12.655 5.24582 11.345 5.24582 10.3993 4.64593Z" fill="#828D99"/>
</g>
<g filter="url(#filter1_d_4_1629)">
<path fill-rule="evenodd" clip-rule="evenodd" d="M16.7442 5.79893C16.357 5.65179 15.9238 5.8464 15.7767 6.2336C15.6295 6.6208 15.8241 7.05396 16.2113 7.2011C16.572 7.33818 16.9486 7.57041 17.3268 7.94546C17.8086 8.4231 18.1135 8.9466 18.2834 9.49776C18.4055 9.89358 18.8253 10.1155 19.2212 9.99344C19.617 9.87138 19.8389 9.45156 19.7168 9.05574C19.4732 8.2657 19.0373 7.52901 18.3829 6.88026C17.8667 6.36845 17.3149 6.01583 16.7442 5.79893Z" fill="white"/>
</g>
</g>
<defs>
<filter id="filter0_b_4_1629" x="-22" y="-20.5" width="68" height="66" filterUnits="userSpaceOnUse" color-interpolation-filters="sRGB">
<feFlood flood-opacity="0" result="BackgroundImageFix"/>
<feGaussianBlur in="BackgroundImageFix" stdDeviation="12"/>
<feComposite in2="SourceAlpha" operator="in" result="effect1_backgroundBlur_4_1629"/>
<feBlend mode="normal" in="SourceGraphic" in2="effect1_backgroundBlur_4_1629" result="shape"/>
</filter>
<filter id="filter1_d_4_1629" x="12.7275" y="2.74982" width="20.0229" height="20.2771" filterUnits="userSpaceOnUse" color-interpolation-filters="sRGB">
<feFlood flood-opacity="0" result="BackgroundImageFix"/>
<feColorMatrix in="SourceAlpha" type="matrix" values="0 0 0 0 0 0 0 0 0 0 0 0 0 0 0 0 0 0 127 0" result="hardAlpha"/>
<feOffset dx="5" dy="5"/>
<feGaussianBlur stdDeviation="4"/>
<feColorMatrix type="matrix" values="0 0 0 0 0.176471 0 0 0 0 0.556863 0 0 0 0 0.678431 0 0 0 0.5 0"/>
<feBlend mode="normal" in2="BackgroundImageFix" result="effect1_dropShadow_4_1629"/>
<feBlend mode="normal" in="SourceGraphic" in2="effect1_dropShadow_4_1629" result="shape"/>
</filter>
<clipPath id="clip0_4_1629">
<rect width="24" height="24" fill="white" transform="translate(0 0.5)"/>
</clipPath>
</defs>
</svg>
