<svg width="24" height="24" viewBox="0 0 24 24" fill="none" xmlns="http://www.w3.org/2000/svg">
<g clip-path="url(#clip0_4_1094)">
<g filter="url(#filter0_b_4_1094)">
<path fill-rule="evenodd" clip-rule="evenodd" d="M10.3993 4.14593C8.72567 3.08425 6.02273 2.08032 3.68853 4.46071C-1.85248 10.1114 7.64984 21 12 21C16.3501 21 25.8525 10.1114 20.3115 4.46072C17.9773 2.08035 15.2744 3.08427 13.6007 4.14593C12.655 4.74582 11.345 4.74582 10.3993 4.14593Z" fill="#007A3D"/>
</g>
<g filter="url(#filter1_d_4_1094)">
<path fill-rule="evenodd" clip-rule="evenodd" d="M16.7442 5.2989C16.357 5.15176 15.9238 5.34637 15.7767 5.73357C15.6295 6.12077 15.8241 6.55393 16.2113 6.70107C16.572 6.83815 16.9486 7.07038 17.3268 7.44543C17.8086 7.92307 18.1135 8.44657 18.2834 8.99772C18.4055 9.39355 18.8253 9.61547 19.2212 9.49341C19.617 9.37135 19.8389 8.95153 19.7168 8.55571C19.4732 7.76567 19.0373 7.02898 18.3829 6.38023C17.8667 5.86842 17.3149 5.5158 16.7442 5.2989Z" fill="white"/>
</g>
</g>
<defs>
<filter id="filter0_b_4_1094" x="-22" y="-21" width="68" height="66" filterUnits="userSpaceOnUse" color-interpolation-filters="sRGB">
<feFlood flood-opacity="0" result="BackgroundImageFix"/>
<feGaussianBlur in="BackgroundImageFix" stdDeviation="12"/>
<feComposite in2="SourceAlpha" operator="in" result="effect1_backgroundBlur_4_1094"/>
<feBlend mode="normal" in="SourceGraphic" in2="effect1_backgroundBlur_4_1094" result="shape"/>
</filter>
<filter id="filter1_d_4_1094" x="12.7275" y="2.24979" width="20.0229" height="20.2771" filterUnits="userSpaceOnUse" color-interpolation-filters="sRGB">
<feFlood flood-opacity="0" result="BackgroundImageFix"/>
<feColorMatrix in="SourceAlpha" type="matrix" values="0 0 0 0 0 0 0 0 0 0 0 0 0 0 0 0 0 0 127 0" result="hardAlpha"/>
<feOffset dx="5" dy="5"/>
<feGaussianBlur stdDeviation="4"/>
<feColorMatrix type="matrix" values="0 0 0 0 0.176471 0 0 0 0 0.556863 0 0 0 0 0.678431 0 0 0 0.5 0"/>
<feBlend mode="normal" in2="BackgroundImageFix" result="effect1_dropShadow_4_1094"/>
<feBlend mode="normal" in="SourceGraphic" in2="effect1_dropShadow_4_1094" result="shape"/>
</filter>
<clipPath id="clip0_4_1094">
<rect width="24" height="24" fill="white"/>
</clipPath>
</defs>
</svg>
