<svg width="51" height="59" viewBox="0 0 51 59" fill="none" xmlns="http://www.w3.org/2000/svg">
<path d="M7.27657 14.2593C6.76904 15.9762 6.76904 18.3447 6.76904 22C6.76904 27.1919 6.76904 29.7879 8.22345 31.6077C8.69317 32.1955 9.26171 32.7123 9.90822 33.1394C11.91 34.4615 14.7656 34.4615 20.4767 34.4615H23.5229C29.234 34.4615 32.0896 34.4615 34.0914 33.1394C34.7379 32.7123 35.3065 32.1955 35.7762 31.6077C37.2306 29.7879 37.2306 27.1919 37.2306 22C37.2306 18.3326 37.2306 15.9604 36.718 14.2421L33.5153 17.1537C31.0292 19.4137 29.081 21.1849 27.3564 22.3811C25.5913 23.6054 23.927 24.3247 21.9996 24.3247C20.0722 24.3247 18.4079 23.6054 16.6428 22.3811C14.9182 21.1849 12.97 19.4137 10.4839 17.1536L7.50599 14.4465L7.27657 14.2593Z" fill="#F0F0F0"/>
<path d="M8.29212 12.3077L8.4579 12.4324L9.07783 12.9382L12.0376 15.6288C14.5989 17.9573 16.4403 19.6282 18.0286 20.7299C19.5905 21.8132 20.7726 22.2478 21.9996 22.2478C23.2266 22.2478 24.4087 21.8132 25.9706 20.7299C27.5589 19.6282 29.4004 17.9573 31.9616 15.6288L35.4768 12.4333L35.6681 12.2603C35.1984 11.6726 34.7379 11.2877 34.0914 10.8607C32.0896 9.53847 29.234 9.53847 23.5229 9.53847H20.4767C14.7656 9.53847 11.91 9.53847 9.90822 10.8607C9.26171 11.2877 8.76183 11.72 8.29212 12.3077Z" fill="#F0F0F0"/>
<path d="M1.3125 55V45.0059H8.98926V55H7.3623V46.4004H2.95312V55H1.3125ZM18.1699 51.1992C18.1699 51.8281 18.0879 52.3864 17.9238 52.874C17.7598 53.3617 17.5205 53.7741 17.2061 54.1113C16.8916 54.444 16.5133 54.6992 16.0713 54.877C15.6292 55.0501 15.1302 55.1367 14.5742 55.1367C14.0547 55.1367 13.5785 55.0501 13.1455 54.877C12.7126 54.6992 12.3366 54.444 12.0176 54.1113C11.7031 53.7741 11.4593 53.3617 11.2861 52.874C11.113 52.3864 11.0264 51.8281 11.0264 51.1992C11.0264 50.3652 11.1699 49.6589 11.457 49.0801C11.7487 48.4967 12.1634 48.0524 12.7012 47.7471C13.2389 47.4417 13.8792 47.2891 14.6221 47.2891C15.3193 47.2891 15.9346 47.4417 16.4678 47.7471C17.001 48.0524 17.418 48.4967 17.7188 49.0801C18.0195 49.6634 18.1699 50.3698 18.1699 51.1992ZM12.6807 51.1992C12.6807 51.7507 12.7467 52.2223 12.8789 52.6143C13.0156 53.0062 13.2253 53.307 13.5078 53.5166C13.7904 53.7217 14.1549 53.8242 14.6016 53.8242C15.0482 53.8242 15.4128 53.7217 15.6953 53.5166C15.9779 53.307 16.1852 53.0062 16.3174 52.6143C16.4495 52.2223 16.5156 51.7507 16.5156 51.1992C16.5156 50.6478 16.4495 50.1807 16.3174 49.7979C16.1852 49.4105 15.9779 49.1165 15.6953 48.916C15.4128 48.7109 15.0459 48.6084 14.5947 48.6084C13.9294 48.6084 13.444 48.8317 13.1387 49.2783C12.8333 49.7249 12.6807 50.3652 12.6807 51.1992ZM21.4238 47.4326V50.1738C21.4238 50.5749 21.5286 50.8734 21.7383 51.0693C21.9479 51.2653 22.2487 51.3633 22.6406 51.3633C23.0781 51.3633 23.4792 51.304 23.8438 51.1855C24.2129 51.0671 24.5843 50.9076 24.958 50.707V47.4326H26.5645V55H24.958V51.8008C24.5798 52.0241 24.1855 52.2109 23.7754 52.3613C23.3652 52.5117 22.8844 52.5869 22.333 52.5869C21.5492 52.5869 20.9339 52.3841 20.4873 51.9785C20.0407 51.5729 19.8174 50.9941 19.8174 50.2422V47.4326H21.4238ZM34.5762 48.6973H32.0879V55H30.4883V48.6973H28.0137V47.4326H34.5762V48.6973ZM39.0059 47.2891C39.9629 47.2891 40.6852 47.501 41.1729 47.9248C41.665 48.3486 41.9111 49.0094 41.9111 49.9072V55H40.7695L40.4619 53.9268H40.4072C40.193 54.2002 39.972 54.4258 39.7441 54.6035C39.5163 54.7812 39.252 54.9134 38.9512 55C38.6549 55.0911 38.2926 55.1367 37.8643 55.1367C37.4131 55.1367 37.0098 55.0547 36.6543 54.8906C36.2988 54.722 36.0186 54.4668 35.8135 54.125C35.6084 53.7832 35.5059 53.3503 35.5059 52.8262C35.5059 52.0469 35.7952 51.4613 36.374 51.0693C36.9574 50.6774 37.8369 50.4609 39.0127 50.4199L40.3252 50.3721V49.9756C40.3252 49.4515 40.2021 49.0778 39.9561 48.8545C39.7145 48.6312 39.3727 48.5195 38.9307 48.5195C38.5524 48.5195 38.1855 48.5742 37.8301 48.6836C37.4746 48.793 37.1283 48.9274 36.791 49.0869L36.2715 47.9521C36.6406 47.7562 37.0599 47.5967 37.5293 47.4736C38.0033 47.3506 38.4954 47.2891 39.0059 47.2891ZM40.3184 51.3838L39.3408 51.418C38.5387 51.4453 37.9759 51.582 37.6523 51.8281C37.3288 52.0742 37.167 52.4115 37.167 52.8398C37.167 53.2135 37.2786 53.487 37.502 53.6602C37.7253 53.8288 38.0192 53.9131 38.3838 53.9131C38.9398 53.9131 39.4001 53.7559 39.7646 53.4414C40.1338 53.1224 40.3184 52.6553 40.3184 52.04V51.3838Z" fill="#F0F0F0"/>
<rect x="28" width="23" height="23" rx="11.5" fill="#46C8B6"/>
<path d="M39.2734 10.9033C39.2734 11.3265 39.2425 11.7415 39.1807 12.1484C39.1221 12.5553 39.0179 12.9362 38.8682 13.291C38.7217 13.6458 38.5182 13.96 38.2578 14.2334C38.0007 14.5036 37.6751 14.7152 37.2812 14.8682C36.8874 15.0212 36.4121 15.0977 35.8555 15.0977C35.7155 15.0977 35.5527 15.0895 35.3672 15.0732C35.1849 15.0602 35.0352 15.0407 34.918 15.0146V14.0576C35.0417 14.0934 35.18 14.1227 35.333 14.1455C35.4893 14.165 35.6439 14.1748 35.7969 14.1748C36.3991 14.1748 36.8678 14.0625 37.2031 13.8379C37.5417 13.6133 37.7809 13.304 37.9209 12.9102C38.0641 12.5163 38.1455 12.0687 38.165 11.5674H38.1064C38.012 11.7236 37.8932 11.8669 37.75 11.9971C37.6068 12.124 37.4294 12.2266 37.2178 12.3047C37.0062 12.3796 36.749 12.417 36.4463 12.417C36.0361 12.417 35.6781 12.3307 35.3721 12.1582C35.0693 11.9857 34.8333 11.735 34.6641 11.4062C34.498 11.0742 34.415 10.6755 34.415 10.21C34.415 9.7054 34.5111 9.27083 34.7031 8.90625C34.8952 8.54167 35.167 8.26172 35.5186 8.06641C35.8701 7.86784 36.2835 7.76855 36.7588 7.76855C37.1169 7.76855 37.4473 7.83366 37.75 7.96387C38.056 8.09082 38.3229 8.28613 38.5508 8.5498C38.7786 8.81022 38.9561 9.13737 39.083 9.53125C39.21 9.92188 39.2734 10.3792 39.2734 10.9033ZM36.7734 8.71582C36.4121 8.71582 36.1175 8.83789 35.8896 9.08203C35.6618 9.32292 35.5479 9.69401 35.5479 10.1953C35.5479 10.6022 35.6455 10.9245 35.8408 11.1621C36.0361 11.3997 36.3356 11.5186 36.7393 11.5186C37.0192 11.5186 37.2601 11.4616 37.4619 11.3477C37.667 11.2305 37.8249 11.0824 37.9355 10.9033C38.0495 10.7243 38.1064 10.542 38.1064 10.3564C38.1064 10.1644 38.0788 9.97233 38.0234 9.78027C37.9714 9.58822 37.89 9.41243 37.7793 9.25293C37.6686 9.09342 37.5286 8.96484 37.3594 8.86719C37.1934 8.76628 36.998 8.71582 36.7734 8.71582ZM44.9961 10.9033C44.9961 11.3265 44.9652 11.7415 44.9033 12.1484C44.8447 12.5553 44.7406 12.9362 44.5908 13.291C44.4443 13.6458 44.2409 13.96 43.9805 14.2334C43.7233 14.5036 43.3978 14.7152 43.0039 14.8682C42.61 15.0212 42.1348 15.0977 41.5781 15.0977C41.4382 15.0977 41.2754 15.0895 41.0898 15.0732C40.9076 15.0602 40.7578 15.0407 40.6406 15.0146V14.0576C40.7643 14.0934 40.9027 14.1227 41.0557 14.1455C41.2119 14.165 41.3665 14.1748 41.5195 14.1748C42.1217 14.1748 42.5905 14.0625 42.9258 13.8379C43.2643 13.6133 43.5036 13.304 43.6436 12.9102C43.7868 12.5163 43.8682 12.0687 43.8877 11.5674H43.8291C43.7347 11.7236 43.6159 11.8669 43.4727 11.9971C43.3294 12.124 43.152 12.2266 42.9404 12.3047C42.7288 12.3796 42.4717 12.417 42.1689 12.417C41.7588 12.417 41.4007 12.3307 41.0947 12.1582C40.792 11.9857 40.556 11.735 40.3867 11.4062C40.2207 11.0742 40.1377 10.6755 40.1377 10.21C40.1377 9.7054 40.2337 9.27083 40.4258 8.90625C40.6178 8.54167 40.8896 8.26172 41.2412 8.06641C41.5928 7.86784 42.0062 7.76855 42.4814 7.76855C42.8395 7.76855 43.1699 7.83366 43.4727 7.96387C43.7786 8.09082 44.0456 8.28613 44.2734 8.5498C44.5013 8.81022 44.6787 9.13737 44.8057 9.53125C44.9326 9.92188 44.9961 10.3792 44.9961 10.9033ZM42.4961 8.71582C42.1348 8.71582 41.8402 8.83789 41.6123 9.08203C41.3844 9.32292 41.2705 9.69401 41.2705 10.1953C41.2705 10.6022 41.3682 10.9245 41.5635 11.1621C41.7588 11.3997 42.0583 11.5186 42.4619 11.5186C42.7419 11.5186 42.9827 11.4616 43.1846 11.3477C43.3896 11.2305 43.5475 11.0824 43.6582 10.9033C43.7721 10.7243 43.8291 10.542 43.8291 10.3564C43.8291 10.1644 43.8014 9.97233 43.7461 9.78027C43.694 9.58822 43.6126 9.41243 43.502 9.25293C43.3913 9.09342 43.2513 8.96484 43.082 8.86719C42.916 8.76628 42.7207 8.71582 42.4961 8.71582Z" fill="#252525"/>
</svg>
