<svg width="22" height="22" viewBox="0 0 22 22" fill="none" xmlns="http://www.w3.org/2000/svg">
<g filter="url(#filter0_b_94_2692)">
<g filter="url(#filter1_b_94_2692)">
<path fill-rule="evenodd" clip-rule="evenodd" d="M1.56795 3.33214C0.599976 4.8227 0.599976 6.88179 0.599976 11C0.599976 15.1182 0.599976 17.1773 1.56795 18.6678C2.0259 19.373 2.62696 19.974 3.33214 20.432C4.8227 21.4 6.88179 21.4 11 21.4C15.1182 21.4 17.1773 21.4 18.6678 20.432C19.373 19.974 19.974 19.373 20.432 18.6678C21.4 17.1773 21.4 15.1182 21.4 11C21.4 6.88179 21.4 4.8227 20.432 3.33214C19.974 2.62696 19.373 2.0259 18.6678 1.56795C17.1773 0.599976 15.1182 0.599976 11 0.599976C6.88179 0.599976 4.8227 0.599976 3.33214 1.56795C2.62696 2.0259 2.0259 2.62696 1.56795 3.33214ZM2.875 7.66654C2.875 5.02018 5.0203 2.87488 7.66667 2.87488H8.5C8.84518 2.87488 9.125 3.1547 9.125 3.49988C9.125 3.84506 8.84518 4.12488 8.5 4.12488H7.66667C5.71066 4.12488 4.125 5.71054 4.125 7.66654V8.49988C4.125 8.84506 3.84518 9.12488 3.5 9.12488C3.15482 9.12488 2.875 8.84506 2.875 8.49988V7.66654ZM12.875 3.49988C12.875 3.1547 13.1548 2.87488 13.5 2.87488H14.3333C16.9797 2.87488 19.125 5.02018 19.125 7.66654V8.49988C19.125 8.84506 18.8452 9.12488 18.5 9.12488C18.1548 9.12488 17.875 8.84506 17.875 8.49988V7.66654C17.875 5.71054 16.2893 4.12488 14.3333 4.12488H13.5C13.1548 4.12488 12.875 3.84506 12.875 3.49988ZM4.125 13.4999C4.125 13.1547 3.84518 12.8749 3.5 12.8749C3.15482 12.8749 2.875 13.1547 2.875 13.4999V14.3332C2.875 16.9796 5.0203 19.1249 7.66667 19.1249H8.5C8.84518 19.1249 9.125 18.8451 9.125 18.4999C9.125 18.1547 8.84518 17.8749 8.5 17.8749H7.66667C5.71066 17.8749 4.125 16.2892 4.125 14.3332V13.4999ZM18.5 12.8749C18.8452 12.8749 19.125 13.1547 19.125 13.4999V14.3332C19.125 16.9796 16.9797 19.1249 14.3333 19.1249H13.5C13.1548 19.1249 12.875 18.8451 12.875 18.4999C12.875 18.1547 13.1548 17.8749 13.5 17.8749H14.3333C16.2893 17.8749 17.875 16.2892 17.875 14.3332V13.4999C17.875 13.1547 18.1548 12.8749 18.5 12.8749ZM6 7.66654C6 6.88087 6 6.48803 6.24408 6.24396C6.48816 5.99988 6.88099 5.99988 7.66667 5.99988C8.45234 5.99988 8.84518 5.99988 9.08926 6.24396C9.33333 6.48803 9.33333 6.88087 9.33333 7.66654V7.66654V7.66655C9.33333 8.45222 9.33333 8.84506 9.08926 9.08913C8.84518 9.33321 8.45234 9.33321 7.66667 9.33321C6.88099 9.33321 6.48816 9.33321 6.24408 9.08913C6 8.84506 6 8.45222 6 7.66654ZM6.24408 12.9106C6 13.1547 6 13.5475 6 14.3332C6 15.1189 6 15.5117 6.24408 15.7558C6.48816 15.9999 6.88099 15.9999 7.66667 15.9999C8.45234 15.9999 8.84518 15.9999 9.08926 15.7558C9.33333 15.5117 9.33333 15.1189 9.33333 14.3332V14.3332V14.3332C9.33333 13.5475 9.33333 13.1547 9.08926 12.9106C8.84518 12.6665 8.45234 12.6665 7.66667 12.6665C6.88099 12.6665 6.48816 12.6665 6.24408 12.9106ZM12.6667 14.3332C12.6667 13.5475 12.6667 13.1547 12.9107 12.9106C13.1548 12.6665 13.5477 12.6665 14.3333 12.6665C15.119 12.6665 15.5118 12.6665 15.7559 12.9106C16 13.1547 16 13.5475 16 14.3332C16 15.1189 16 15.5117 15.7559 15.7558C15.5118 15.9999 15.119 15.9999 14.3333 15.9999C13.5477 15.9999 13.1548 15.9999 12.9107 15.7558C12.6667 15.5117 12.6667 15.1189 12.6667 14.3332ZM12.9107 6.24396C12.6667 6.48803 12.6667 6.88087 12.6667 7.66654C12.6667 8.45222 12.6667 8.84506 12.9107 9.08913C13.1548 9.33321 13.5477 9.33321 14.3333 9.33321C15.119 9.33321 15.5118 9.33321 15.7559 9.08913C16 8.84506 16 8.45222 16 7.66654C16 6.88087 16 6.48803 15.7559 6.24396C15.5118 5.99988 15.119 5.99988 14.3333 5.99988C13.5477 5.99988 13.1548 5.99988 12.9107 6.24396Z" fill="#828D99"/>
</g>
</g>
<defs>
<filter id="filter0_b_94_2692" x="-23.4" y="-23.4" width="68.8" height="68.8" filterUnits="userSpaceOnUse" color-interpolation-filters="sRGB">
<feFlood flood-opacity="0" result="BackgroundImageFix"/>
<feGaussianBlur in="BackgroundImageFix" stdDeviation="12"/>
<feComposite in2="SourceAlpha" operator="in" result="effect1_backgroundBlur_94_2692"/>
<feBlend mode="normal" in="SourceGraphic" in2="effect1_backgroundBlur_94_2692" result="shape"/>
</filter>
<filter id="filter1_b_94_2692" x="-23.4" y="-23.4" width="68.8" height="68.8" filterUnits="userSpaceOnUse" color-interpolation-filters="sRGB">
<feFlood flood-opacity="0" result="BackgroundImageFix"/>
<feGaussianBlur in="BackgroundImageFix" stdDeviation="12"/>
<feComposite in2="SourceAlpha" operator="in" result="effect1_backgroundBlur_94_2692"/>
<feBlend mode="normal" in="SourceGraphic" in2="effect1_backgroundBlur_94_2692" result="shape"/>
</filter>
</defs>
</svg>
