<svg width="22" height="22" viewBox="0 0 22 22" fill="none" xmlns="http://www.w3.org/2000/svg">
<g filter="url(#filter0_b_61_4248)">
<g filter="url(#filter1_b_61_4248)">
<path fill-rule="evenodd" clip-rule="evenodd" d="M1.56807 3.33214C0.600098 4.8227 0.600098 6.88179 0.600098 11C0.600098 15.1182 0.600098 17.1773 1.56807 18.6678C2.02602 19.373 2.62708 19.974 3.33227 20.432C4.82282 21.4 6.88191 21.4 11.0001 21.4C15.1183 21.4 17.1774 21.4 18.6679 20.432C19.3731 19.974 19.9742 19.373 20.4321 18.6678C21.4001 17.1773 21.4001 15.1182 21.4001 11C21.4001 6.88179 21.4001 4.8227 20.4321 3.33214C19.9742 2.62696 19.3731 2.0259 18.6679 1.56795C17.1774 0.599976 15.1183 0.599976 11.0001 0.599976C6.88191 0.599976 4.82282 0.599976 3.33227 1.56795C2.62708 2.0259 2.02602 2.62696 1.56807 3.33214ZM2.87512 7.66654C2.87512 5.02018 5.02042 2.87488 7.66679 2.87488H8.50012C8.8453 2.87488 9.12512 3.1547 9.12512 3.49988C9.12512 3.84506 8.8453 4.12488 8.50012 4.12488H7.66679C5.71078 4.12488 4.12512 5.71054 4.12512 7.66654V8.49988C4.12512 8.84506 3.8453 9.12488 3.50012 9.12488C3.15494 9.12488 2.87512 8.84506 2.87512 8.49988V7.66654ZM12.8751 3.49988C12.8751 3.1547 13.1549 2.87488 13.5001 2.87488H14.3335C16.9798 2.87488 19.1251 5.02018 19.1251 7.66654V8.49988C19.1251 8.84506 18.8453 9.12488 18.5001 9.12488C18.1549 9.12488 17.8751 8.84506 17.8751 8.49988V7.66654C17.8751 5.71054 16.2895 4.12488 14.3335 4.12488H13.5001C13.1549 4.12488 12.8751 3.84506 12.8751 3.49988ZM4.12512 13.4999C4.12512 13.1547 3.8453 12.8749 3.50012 12.8749C3.15494 12.8749 2.87512 13.1547 2.87512 13.4999V14.3332C2.87512 16.9796 5.02043 19.1249 7.66679 19.1249H8.50012C8.8453 19.1249 9.12512 18.8451 9.12512 18.4999C9.12512 18.1547 8.8453 17.8749 8.50012 17.8749H7.66679C5.71078 17.8749 4.12512 16.2892 4.12512 14.3332V13.4999ZM18.5001 12.8749C18.8453 12.8749 19.1251 13.1547 19.1251 13.4999V14.3332C19.1251 16.9796 16.9798 19.1249 14.3335 19.1249H13.5001C13.1549 19.1249 12.8751 18.8451 12.8751 18.4999C12.8751 18.1547 13.1549 17.8749 13.5001 17.8749H14.3335C16.2895 17.8749 17.8751 16.2892 17.8751 14.3332V13.4999C17.8751 13.1547 18.1549 12.8749 18.5001 12.8749ZM6.00012 7.66654C6.00012 6.88087 6.00012 6.48803 6.2442 6.24396C6.48828 5.99988 6.88111 5.99988 7.66679 5.99988C8.45246 5.99988 8.8453 5.99988 9.08938 6.24396C9.33346 6.48803 9.33346 6.88087 9.33346 7.66654V7.66654V7.66655C9.33346 8.45222 9.33346 8.84506 9.08938 9.08913C8.8453 9.33321 8.45246 9.33321 7.66679 9.33321C6.88111 9.33321 6.48828 9.33321 6.2442 9.08913C6.00012 8.84506 6.00012 8.45222 6.00012 7.66654ZM6.2442 12.9106C6.00012 13.1547 6.00012 13.5475 6.00012 14.3332C6.00012 15.1189 6.00012 15.5117 6.2442 15.7558C6.48828 15.9999 6.88111 15.9999 7.66679 15.9999C8.45246 15.9999 8.8453 15.9999 9.08938 15.7558C9.33346 15.5117 9.33346 15.1189 9.33346 14.3332V14.3332V14.3332C9.33346 13.5475 9.33346 13.1547 9.08938 12.9106C8.8453 12.6665 8.45246 12.6665 7.66679 12.6665C6.88111 12.6665 6.48828 12.6665 6.2442 12.9106ZM12.6668 14.3332C12.6668 13.5475 12.6668 13.1547 12.9109 12.9106C13.1549 12.6665 13.5478 12.6665 14.3335 12.6665C15.1191 12.6665 15.512 12.6665 15.756 12.9106C16.0001 13.1547 16.0001 13.5475 16.0001 14.3332C16.0001 15.1189 16.0001 15.5117 15.756 15.7558C15.512 15.9999 15.1191 15.9999 14.3335 15.9999C13.5478 15.9999 13.1549 15.9999 12.9109 15.7558C12.6668 15.5117 12.6668 15.1189 12.6668 14.3332ZM12.9109 6.24396C12.6668 6.48803 12.6668 6.88087 12.6668 7.66654C12.6668 8.45222 12.6668 8.84506 12.9109 9.08913C13.1549 9.33321 13.5478 9.33321 14.3335 9.33321C15.1191 9.33321 15.512 9.33321 15.756 9.08913C16.0001 8.84506 16.0001 8.45222 16.0001 7.66654C16.0001 6.88087 16.0001 6.48803 15.756 6.24396C15.512 5.99988 15.1191 5.99988 14.3335 5.99988C13.5478 5.99988 13.1549 5.99988 12.9109 6.24396Z" fill="white"/>
</g>
</g>
<defs>
<filter id="filter0_b_61_4248" x="-23.3999" y="-23.4" width="68.7998" height="68.8" filterUnits="userSpaceOnUse" color-interpolation-filters="sRGB">
<feFlood flood-opacity="0" result="BackgroundImageFix"/>
<feGaussianBlur in="BackgroundImageFix" stdDeviation="12"/>
<feComposite in2="SourceAlpha" operator="in" result="effect1_backgroundBlur_61_4248"/>
<feBlend mode="normal" in="SourceGraphic" in2="effect1_backgroundBlur_61_4248" result="shape"/>
</filter>
<filter id="filter1_b_61_4248" x="-23.3999" y="-23.4" width="68.7998" height="68.8" filterUnits="userSpaceOnUse" color-interpolation-filters="sRGB">
<feFlood flood-opacity="0" result="BackgroundImageFix"/>
<feGaussianBlur in="BackgroundImageFix" stdDeviation="12"/>
<feComposite in2="SourceAlpha" operator="in" result="effect1_backgroundBlur_61_4248"/>
<feBlend mode="normal" in="SourceGraphic" in2="effect1_backgroundBlur_61_4248" result="shape"/>
</filter>
</defs>
</svg>
