<svg width="5" height="10" viewBox="0 0 5 10" fill="none" xmlns="http://www.w3.org/2000/svg">
<path fill-rule="evenodd" clip-rule="evenodd" d="M1.32571 0.451407C1.07284 0.211686 0.664691 0.213428 0.414074 0.455297C0.163456 0.697166 0.165277 1.08757 0.418141 1.32729L1.93342 2.76382C2.54839 3.34682 2.97024 3.74806 3.25568 4.08803C3.53295 4.41828 3.62807 4.63041 3.65339 4.82038C3.66929 4.93967 3.66929 5.06037 3.65339 5.17966C3.62807 5.36964 3.53295 5.58176 3.25568 5.91201C2.97024 6.25199 2.54839 6.65322 1.93342 7.23623L0.418141 8.67275C0.165278 8.91247 0.163457 9.30288 0.414074 9.54475C0.664692 9.78662 1.07284 9.78836 1.32571 9.54864L2.86829 8.08624C3.44928 7.53546 3.92414 7.08529 4.2609 6.6842C4.61109 6.26711 4.86458 5.84376 4.9323 5.33559C4.96199 5.11277 4.96199 4.88728 4.9323 4.66446C4.86458 4.15629 4.61109 3.73294 4.2609 3.31585C3.92414 2.91475 3.44929 2.4646 2.86829 1.91382L1.32571 0.451407Z" fill="#828D99"/>
</svg>
