<svg width="6" height="10" viewBox="0 0 6 10" fill="none" xmlns="http://www.w3.org/2000/svg">
<path fill-rule="evenodd" clip-rule="evenodd" d="M4.26536 0.451407C4.51822 0.211686 4.92637 0.213428 5.17699 0.455297C5.42761 0.697166 5.42579 1.08757 5.17292 1.32729L3.65764 2.76382C3.04268 3.34682 2.62083 3.74806 2.33539 4.08803C2.05811 4.41828 1.96299 4.6304 1.93767 4.82038C1.92178 4.93967 1.92178 5.06037 1.93767 5.17966C1.96299 5.36964 2.05811 5.58176 2.33539 5.91201C2.62083 6.25199 3.04267 6.65322 3.65764 7.23623L5.17292 8.67275C5.42579 8.91247 5.42761 9.30288 5.17699 9.54475C4.92637 9.78662 4.51822 9.78836 4.26536 9.54864L2.72278 8.08624C2.14179 7.53546 1.66692 7.08529 1.33016 6.6842C0.979977 6.26711 0.726483 5.84376 0.658766 5.33559C0.629074 5.11277 0.629074 4.88728 0.658766 4.66446C0.726483 4.15629 0.979978 3.73294 1.33016 3.31585C1.66692 2.91475 2.14177 2.4646 2.72277 1.91382L4.26536 0.451407Z" fill="#828D99"/>
</svg>
