<svg width="20" height="20" viewBox="0 0 20 20" fill="none" xmlns="http://www.w3.org/2000/svg">
<g filter="url(#filter0_b_2_1008)">
<path fill-rule="evenodd" clip-rule="evenodd" d="M6.06984 4.52428C6.30481 2.56245 7.97474 1.04166 9.99987 1.04166C12.025 1.04166 13.6949 2.56245 13.9299 4.52428C14.258 4.58712 14.5603 4.67796 14.8502 4.81087C15.6881 5.19497 16.3974 5.81257 16.8931 6.58963C17.1931 7.05995 17.3711 7.58607 17.511 8.22789C17.648 8.85669 17.7569 9.64063 17.8954 10.638L17.9031 10.6931C18.0813 11.9766 18.2207 12.9799 18.263 13.7881C18.306 14.6086 18.254 15.2923 18.0072 15.9201C17.6037 16.9461 16.8588 17.8016 15.8981 18.3424C15.3102 18.6732 14.6401 18.8188 13.8215 18.8891C13.0152 18.9583 12.0023 18.9583 10.7066 18.9583H10.7066H9.29316H9.29311C7.99742 18.9583 6.98452 18.9583 6.17826 18.8891C5.35963 18.8188 4.68951 18.6732 4.10169 18.3424C3.14093 17.8016 2.39602 16.9461 1.99259 15.9201C1.74575 15.2923 1.69377 14.6086 1.73674 13.7881C1.77906 12.9799 1.91841 11.9766 2.09667 10.6932L2.10434 10.638L2.10434 10.638C2.24286 9.64063 2.35174 8.85669 2.48876 8.22789C2.62861 7.58607 2.80665 7.05995 3.10668 6.58963C3.60239 5.81257 4.31169 5.19497 5.14956 4.81087C5.43949 4.67796 5.74174 4.58712 6.06984 4.52428ZM7.35912 4.3961C7.90089 4.37498 8.53365 4.37498 9.28538 4.37499H10.7144C11.4661 4.37498 12.0989 4.37498 12.6406 4.3961C12.3662 3.19102 11.2881 2.29166 9.99987 2.29166C8.71168 2.29166 7.63355 3.19102 7.35912 4.3961ZM6.22458 8.72472C6.46866 8.48064 6.86439 8.48064 7.10846 8.72472L7.4418 9.05805C8.85457 10.4708 11.1451 10.4708 12.5579 9.05805L12.8912 8.72472C13.1353 8.48064 13.5311 8.48064 13.7751 8.72472C14.0192 8.96879 14.0192 9.36452 13.7751 9.6086L13.4418 9.94193C11.5409 11.8429 8.45885 11.8429 6.55791 9.94193L6.22458 9.6086C5.9805 9.36452 5.9805 8.96879 6.22458 8.72472Z" fill="#828D99"/>
</g>
<defs>
<filter id="filter0_b_2_1008" x="-22.2769" y="-22.9583" width="64.5532" height="65.9167" filterUnits="userSpaceOnUse" color-interpolation-filters="sRGB">
<feFlood flood-opacity="0" result="BackgroundImageFix"/>
<feGaussianBlur in="BackgroundImageFix" stdDeviation="12"/>
<feComposite in2="SourceAlpha" operator="in" result="effect1_backgroundBlur_2_1008"/>
<feBlend mode="normal" in="SourceGraphic" in2="effect1_backgroundBlur_2_1008" result="shape"/>
</filter>
</defs>
</svg>
