<svg width="20" height="20" viewBox="0 0 20 20" fill="none" xmlns="http://www.w3.org/2000/svg">
<path d="M10.3844 3.73304V17.6923C11.6599 17.5709 12.7881 17.5516 13.8695 16.9638L16.8025 15.3697C17.7257 14.8679 18.0767 14.0037 18.0767 13.1674V5.02261C18.0767 2.88453 14.9008 1.54853 12.5406 2.83138C11.8533 3.20492 11.1896 3.62441 10.3844 3.73304Z" fill="#828D99"/>
<path d="M9.61516 17.6923C8.33855 17.5709 7.40866 17.5515 6.32631 16.9638L3.39067 15.3696C2.46666 14.8678 1.92285 14.0803 1.92285 13.2441V4.907C1.92285 2.76892 5.29404 1.54846 7.65638 2.83131C8.34426 3.20486 8.80926 3.62441 9.61516 3.73304V17.6923Z" fill="#828D99"/>
<path d="M9.61523 3.74097H10.3845V17.6923H9.61523V3.74097Z" fill="white" fill-opacity="0.25"/>
</svg>
