<svg width="20" height="20" viewBox="0 0 20 20" fill="none" xmlns="http://www.w3.org/2000/svg">
<path fill-rule="evenodd" clip-rule="evenodd" d="M2.70634 3.90981C2.2294 4.0759 1.893 4.37657 1.68005 4.82709L1.55425 5.09315L1.54348 9.44395C1.53144 13.449 1.51785 13.2371 1.81574 13.6842C2.08203 14.0838 2.5637 14.3723 3.0747 14.4382L3.28749 14.4656L3.37974 14.6934C3.67294 15.4173 4.29141 15.9365 5.05297 16.0982C5.40201 16.1723 5.6148 16.1724 5.96595 16.0985C6.76809 15.9297 7.43167 15.3268 7.70834 14.5154C7.73063 14.45 7.88397 14.4457 10.1745 14.4457H12.6168L12.682 14.6423C12.8809 15.2425 13.4484 15.7994 14.0881 16.0224C15.2297 16.4202 16.4453 15.8718 16.9376 14.7369C17.0669 14.4387 17.0789 14.4248 17.2424 14.3827C17.6894 14.2675 18.1057 13.9108 18.3184 13.4609L18.4459 13.1911L18.4572 9.84536C18.4698 6.11622 18.4744 5.42198 18.201 4.96454C17.9198 4.49419 17.4996 4.173 16.8958 3.96692L16.5779 3.85843L9.74173 3.84943C3.33185 3.84098 2.89314 3.84473 2.70634 3.90981ZM14.1801 6.09507C14.2481 6.15677 14.2528 7.02856 14.2528 8.46012C14.2528 9.43854 14.238 10.0178 14.2117 10.0671C14.1713 10.1426 14.0749 10.1441 9.29321 10.1435C3.94145 10.1428 4.94825 10.153 4.42528 9.90287C3.75077 9.58025 3.24 8.96225 3.05777 8.24834C2.96505 7.88494 2.94402 6.16007 3.02697 6.07695C3.06366 6.04018 3.66976 6.02915 8.20642 6.02915C13.6416 6.02915 14.1132 6.03437 14.1801 6.09507ZM17.7424 6.07695C17.7783 6.11291 17.7901 7.42148 17.7901 9.02885C17.7901 11.2036 17.7865 11.2593 17.645 11.2593C17.5686 11.2593 15.1511 10.1399 15.1178 10.0891C15.1018 10.0646 15.0884 9.33295 15.088 8.46327C15.0875 6.99892 15.0926 6.10977 15.157 6.07217C15.2623 6.01067 17.6808 6.01517 17.7424 6.07695ZM6.00808 12.6902C6.25661 12.8003 6.5572 13.0979 6.66642 13.3419C6.79805 13.636 6.79527 14.1044 6.66022 14.386C6.19771 15.35 4.83521 15.367 4.36844 14.4144C4.27257 14.2187 4.25699 14.1393 4.25747 13.8483C4.25795 13.56 4.27361 13.4801 4.3628 13.3105C4.69117 12.6865 5.39831 12.4198 6.00808 12.6902ZM15.1387 12.6329C15.795 12.8042 16.1967 13.4222 16.0763 14.0752C16.022 14.3692 15.9288 14.5491 15.7244 14.7539C15.4567 15.0222 15.2492 15.103 14.8291 15.1025C14.5182 15.1022 14.4448 15.0882 14.2684 14.9952C14.0011 14.8544 13.7198 14.537 13.6347 14.2803C13.5446 14.0084 13.5704 13.5346 13.6879 13.3059C13.8658 12.9594 14.1496 12.7305 14.5282 12.6281C14.7719 12.5623 14.871 12.5631 15.1387 12.6329Z" fill="#828D99"/>
</svg>
