<svg width="20" height="15" viewBox="0 0 20 15" fill="none" xmlns="http://www.w3.org/2000/svg">
<path d="M7.20902 6.64008C6.48811 5.92316 6.04183 4.93035 6.04183 3.83331C6.04183 2.73628 6.48811 1.74347 7.20902 1.02655C6.79397 0.822752 6.32709 0.708313 5.8335 0.708313C4.10761 0.708313 2.7085 2.10742 2.7085 3.83331C2.7085 5.5592 4.10761 6.95831 5.8335 6.95831C6.32709 6.95831 6.79397 6.84387 7.20902 6.64008Z" fill="#828D99"/>
<path d="M6.87516 3.83331C6.87516 2.10742 8.27427 0.708313 10.0002 0.708313C11.7261 0.708313 13.1252 2.10742 13.1252 3.83331C13.1252 5.5592 11.7261 6.95831 10.0002 6.95831C8.27427 6.95831 6.87516 5.5592 6.87516 3.83331Z" fill="#828D99"/>
<path d="M12.7913 1.02655C13.5122 1.74347 13.9585 2.73628 13.9585 3.83331C13.9585 4.93035 13.5122 5.92316 12.7913 6.64008C13.2064 6.84387 13.6732 6.95831 14.1668 6.95831C15.8927 6.95831 17.2918 5.5592 17.2918 3.83331C17.2918 2.10742 15.8927 0.708313 14.1668 0.708313C13.6732 0.708313 13.2064 0.822752 12.7913 1.02655Z" fill="#828D99"/>
<path d="M4.37516 11.3333C4.37516 9.60742 5.77427 8.20831 7.50016 8.20831H12.5002C14.2261 8.20831 15.6252 9.60742 15.6252 11.3333C15.6252 13.0592 14.2261 14.4583 12.5002 14.4583H7.50016C5.77427 14.4583 4.37516 13.0592 4.37516 11.3333Z" fill="#828D99"/>
<path d="M0.208496 10.5C0.208496 8.77409 1.60761 7.37498 3.3335 7.37498H7.50016C5.31404 7.37498 3.54183 9.14719 3.54183 11.3333C3.54183 12.1874 3.81231 12.9783 4.27229 13.625H3.3335C1.60761 13.625 0.208496 12.2259 0.208496 10.5Z" fill="#828D99"/>
<path d="M16.4585 11.3333C16.4585 12.1874 16.188 12.9783 15.728 13.625H16.6668C18.3927 13.625 19.7918 12.2259 19.7918 10.5C19.7918 8.77409 18.3927 7.37498 16.6668 7.37498H12.5002C14.6863 7.37498 16.4585 9.14719 16.4585 11.3333Z" fill="#828D99"/>
</svg>
