<svg width="20" height="20" viewBox="0 0 20 20" fill="none" xmlns="http://www.w3.org/2000/svg">
<path fill-rule="evenodd" clip-rule="evenodd" d="M6.12605 0.595629C5.97168 0.286892 5.59626 0.161752 5.28752 0.31612C4.97879 0.470488 4.85365 0.845909 5.00801 1.15465L5.052 1.24262C5.19863 1.53588 5.19863 1.88106 5.052 2.17432L5.00801 2.26229C4.85365 2.57103 4.97879 2.94645 5.28752 3.10082C5.59626 3.25519 5.97168 3.13005 6.12605 2.82131L6.17004 2.73334C6.49262 2.08817 6.49262 1.32877 6.17004 0.683605L6.12605 0.595629ZM12.7927 0.59563C12.6383 0.286893 12.2629 0.161752 11.9542 0.316119C11.6455 0.470487 11.5203 0.845907 11.6747 1.15464L11.7187 1.24262C11.8653 1.53588 11.8653 1.88106 11.7187 2.17432L11.6747 2.26229C11.5203 2.57103 11.6455 2.94645 11.9542 3.10082C12.2629 3.25519 12.6383 3.13005 12.7927 2.82132L12.8367 2.73334C13.1593 2.08817 13.1593 1.32877 12.8367 0.683606L12.7927 0.59563ZM9.45938 1.15465C9.61375 0.84591 9.48861 0.470489 9.17988 0.31612C8.87114 0.161752 8.49572 0.286891 8.34135 0.595628L8.29736 0.683606C7.97478 1.32877 7.97478 2.08817 8.29736 2.73333L8.34135 2.82131C8.49572 3.13005 8.87114 3.25519 9.17987 3.10082C9.48861 2.94645 9.61375 2.57103 9.45938 2.2623L9.41539 2.17432C9.26877 1.88106 9.26877 1.53588 9.41539 1.24262L9.45938 1.15465ZM8.63404 3.54187H8.91792C10.3796 3.54164 11.2679 3.54151 11.9789 3.76807C13.7276 4.32531 15.0044 5.83253 15.2666 7.6491C15.3087 7.94081 15.3114 8.25398 15.2844 8.61499C16.6858 8.92356 17.7343 10.1728 17.7343 11.6669C17.7343 13.3928 16.3352 14.7919 14.6093 14.7919C14.5077 14.7919 14.4071 14.787 14.3078 14.7775L14.2357 15.2103C14.145 15.7549 14.0895 16.0877 14.0018 16.3795C13.457 18.192 11.8964 19.514 10.0191 19.7534C9.7168 19.7919 9.37947 19.7919 8.82742 19.7919H8.72459C8.17253 19.7919 7.83516 19.7919 7.5329 19.7534C5.65551 19.514 4.09493 18.192 3.55015 16.3795C3.46243 16.0877 3.40699 15.7549 3.31625 15.2103L2.56546 10.7056C2.32494 9.26385 2.17878 8.38768 2.28537 7.6491C2.54754 5.83253 3.82434 4.32531 5.5731 3.76807C5.85848 3.67713 6.17241 3.62272 6.54052 3.59017V7.54178H6.33219C5.87195 7.54178 5.49885 7.91487 5.49885 8.37511V10.0418C5.49885 10.502 5.87195 10.8751 6.33219 10.8751H7.99885C8.45909 10.8751 8.83219 10.502 8.83219 10.0418V8.37511C8.83219 7.91487 8.45909 7.54178 7.99885 7.54178H7.79052L7.79052 3.5438C8.04914 3.54178 8.32911 3.54182 8.63404 3.54187ZM14.5142 13.5395C14.5457 13.5411 14.5774 13.5419 14.6093 13.5419C15.6449 13.5419 16.4843 12.7024 16.4843 11.6669C16.4843 10.8101 15.9097 10.0876 15.1248 9.86363C15.084 10.1213 15.0375 10.4001 14.9868 10.704L14.9867 10.7042L14.9867 10.7044L14.9866 10.7049L14.5142 13.5395Z" fill="#828D99"/>
</svg>
