<svg width="20" height="20" viewBox="0 0 20 20" fill="none" xmlns="http://www.w3.org/2000/svg">
<path fill-rule="evenodd" clip-rule="evenodd" d="M14.7286 1.96375C13.6899 1.66669 12.2499 1.66669 10 1.66669C8.08535 1.66669 6.75728 1.66669 5.76383 1.84975C6.72418 2.80871 7.44053 3.51172 8.06314 4.01004C8.73182 4.54523 9.23719 4.7977 9.74931 4.87881C10.1164 4.93695 10.4903 4.93695 10.8574 4.87881C11.3552 4.79996 11.8468 4.55914 12.4881 4.0541C13.0967 3.57481 13.795 2.89493 14.7286 1.96375ZM4.48995 2.28634C4.39579 2.34022 4.30518 2.39879 4.21756 2.46245C3.86383 2.71945 3.55276 3.03052 3.29576 3.38425C2.5 4.47952 2.5 6.04191 2.5 9.16669V10.8334C2.5 13.9581 2.5 15.5205 3.29576 16.6158C3.55276 16.9695 3.86383 17.2806 4.21756 17.5376C5.31283 18.3334 6.87522 18.3334 10 18.3334C13.1248 18.3334 14.6872 18.3334 15.7824 17.5376C16.1362 17.2806 16.4472 16.9695 16.7042 16.6158C17.5 15.5205 17.5 13.9581 17.5 10.8334V9.16669C17.5 6.04191 17.5 4.47952 16.7042 3.38425C16.4746 3.06812 16.2017 2.78607 15.8938 2.54623C15.8699 2.58358 15.8416 2.61894 15.8089 2.65158C14.7907 3.669 13.9819 4.46873 13.2614 5.03613C12.5316 5.61087 11.8431 5.98827 11.0529 6.11342C10.5563 6.19208 10.0504 6.19208 9.55376 6.11342C8.7409 5.98467 8.0354 5.5889 7.28205 4.98595C6.53791 4.39037 5.69375 3.54755 4.61829 2.47213C4.56297 2.41681 4.52019 2.35371 4.48995 2.28634ZM6.04164 8.33342C6.04164 7.98824 6.32146 7.70842 6.66664 7.70842H13.3333C13.6785 7.70842 13.9583 7.98824 13.9583 8.33342C13.9583 8.67859 13.6785 8.95842 13.3333 8.95842H6.66664C6.32146 8.95842 6.04164 8.67859 6.04164 8.33342ZM6.04164 11.6667C6.04164 11.3216 6.32146 11.0417 6.66664 11.0417H13.3333C13.6785 11.0417 13.9583 11.3216 13.9583 11.6667C13.9583 12.0119 13.6785 12.2918 13.3333 12.2918H6.66664C6.32146 12.2918 6.04164 12.0119 6.04164 11.6667ZM6.04164 15.0001C6.04164 14.6549 6.32146 14.3751 6.66664 14.3751H13.3333C13.6785 14.3751 13.9583 14.6549 13.9583 15.0001C13.9583 15.3453 13.6785 15.6251 13.3333 15.6251H6.66664C6.32146 15.6251 6.04164 15.3453 6.04164 15.0001Z" fill="#828D99"/>
</svg>
