<svg width="18" height="18" viewBox="0 0 18 18" fill="none" xmlns="http://www.w3.org/2000/svg">
<g filter="url(#filter0_b_2_120)">
<path d="M4.24497 2.9713C6.46731 1.35667 7.57849 0.549354 8.8475 0.502801C8.9493 0.499066 9.0512 0.499066 9.153 0.502801C10.422 0.549354 11.5332 1.35667 13.7555 2.9713C15.9779 4.58593 17.0891 5.39324 17.5255 6.58576C17.5605 6.68142 17.592 6.77834 17.6199 6.87631C17.9678 8.0976 17.5433 9.40386 16.6945 12.0164L15.2603 16.4304C15.0324 17.1317 14.3788 17.6066 13.6414 17.6066C12.7013 17.6066 11.9392 16.8445 11.9392 15.9044V13.6136C11.9392 12.7315 11.2241 12.0164 10.342 12.0164H7.65852C6.77641 12.0164 6.06132 12.7315 6.06132 13.6136V15.9044C6.06132 16.8445 5.29922 17.6066 4.35912 17.6066C3.62168 17.6066 2.96811 17.1317 2.74023 16.4304L1.30604 12.0164C0.457179 9.40386 0.0327488 8.0976 0.38062 6.87631C0.408526 6.77834 0.440016 6.68142 0.475025 6.58576C0.911446 5.39324 2.02262 4.58593 4.24497 2.9713Z" fill="#828D99"/>
</g>
<defs>
<filter id="filter0_b_2_120" x="-23.7412" y="-23.5" width="65.4829" height="65.1066" filterUnits="userSpaceOnUse" color-interpolation-filters="sRGB">
<feFlood flood-opacity="0" result="BackgroundImageFix"/>
<feGaussianBlur in="BackgroundImageFix" stdDeviation="12"/>
<feComposite in2="SourceAlpha" operator="in" result="effect1_backgroundBlur_2_120"/>
<feBlend mode="normal" in="SourceGraphic" in2="effect1_backgroundBlur_2_120" result="shape"/>
</filter>
</defs>
</svg>
