<svg width="20" height="20" viewBox="0 0 20 20" fill="none" xmlns="http://www.w3.org/2000/svg">
<path fill-rule="evenodd" clip-rule="evenodd" d="M6.2804 1.97811C7.23218 1.87499 8.43185 1.87499 9.96229 1.875H10.0377C11.5682 1.87499 12.7678 1.87499 13.7196 1.97811C14.6909 2.08334 15.4779 2.30194 16.1498 2.79013C16.5566 3.08567 16.9143 3.44341 17.2099 3.8502C17.6981 4.52213 17.9167 5.30912 18.0219 6.2804C18.125 7.23216 18.125 8.43187 18.125 9.96227V10.005C18.125 10.7836 18.125 11.4735 18.1124 12.0838C18.0752 13.8788 17.9348 15.1521 17.2099 16.1498C16.9143 16.5566 16.5566 16.9143 16.1498 17.2099C15.4779 17.6981 14.6909 17.9167 13.7196 18.0219C12.7678 18.125 11.5682 18.125 10.0378 18.125H9.96227C8.43187 18.125 7.23216 18.125 6.2804 18.0219C5.30912 17.9167 4.52213 17.6981 3.8502 17.2099C3.45817 16.9251 3.1117 16.5825 2.82255 16.1939C2.81166 16.1793 2.80085 16.1646 2.79013 16.1498C2.30194 15.4779 2.08334 14.6909 1.97811 13.7196C1.87499 12.7678 1.87499 11.5682 1.875 10.0377V9.96229C1.87499 8.43185 1.87499 7.23217 1.97811 6.2804C2.08334 5.30912 2.30194 4.52213 2.79013 3.8502C3.08568 3.44341 3.44341 3.08568 3.8502 2.79013C4.52213 2.30194 5.30912 2.08334 6.2804 1.97811ZM16.8711 11.4597L16.8186 11.409C16.5886 11.1881 16.4187 11.0386 16.2588 10.9251C14.4682 9.65374 11.9982 9.99042 10.6131 11.6947C10.4459 11.9005 10.2784 12.1748 10.0152 12.6352L9.58333 12.5C8.58706 12.3007 8.08893 12.2011 7.63174 12.2108C6.40821 12.2368 5.25796 12.7994 4.48628 13.7492C4.22903 14.0659 4.02047 14.4616 3.65585 15.1886C3.70082 15.2682 3.74926 15.3433 3.8014 15.4151L3.82536 15.4477C4.03909 15.7349 4.29517 15.9881 4.58493 16.1986C5.00826 16.5062 5.55011 16.6855 6.41504 16.7792C7.29166 16.8741 8.42369 16.875 10 16.875C11.5763 16.875 12.7083 16.8741 13.585 16.7792C14.4499 16.6855 14.9917 16.5062 15.4151 16.1986C15.7157 15.9802 15.9802 15.7157 16.1986 15.4151C16.6667 14.7708 16.825 13.8772 16.8626 12.0579C16.8666 11.8671 16.8693 11.668 16.8711 11.4597ZM9.16667 9.16667C8.24619 9.16667 7.5 8.42047 7.5 7.5C7.5 6.57953 8.24619 5.83333 9.16667 5.83333C10.0871 5.83333 10.8333 6.57953 10.8333 7.5C10.8333 8.42047 10.0871 9.16667 9.16667 9.16667Z" fill="#828D99"/>
</svg>
