<svg width="20" height="20" viewBox="0 0 20 20" fill="none" xmlns="http://www.w3.org/2000/svg">
<path d="M1.82053 5.69957C1.53857 6.65341 1.53857 7.96928 1.53857 9.99998C1.53857 12.8844 1.53857 14.3266 2.34658 15.3376C2.60753 15.6641 2.92339 15.9513 3.28256 16.1885C4.39468 16.9231 5.98111 16.9231 9.15396 16.9231H10.8463C14.0191 16.9231 15.6055 16.9231 16.7177 16.1885C17.0768 15.9513 17.3927 15.6641 17.6536 15.3376C18.4617 14.3266 18.4617 12.8844 18.4617 9.99998C18.4617 7.96251 18.4617 6.64465 18.1769 5.69005L16.3976 7.30757C15.0165 8.56317 13.9341 9.54715 12.976 10.2117C11.9954 10.8919 11.0708 11.2915 10 11.2915C8.92923 11.2915 8.00461 10.8919 7.02397 10.2117C6.06591 9.54715 4.98353 8.56316 3.60238 7.30755L1.94799 5.80356L1.82053 5.69957Z" fill="#828D99"/>
<path d="M2.38473 4.61537L2.47683 4.68465L2.82124 4.96564L4.46553 6.46045C5.88847 7.75403 6.91149 8.68231 7.79386 9.29434C8.6616 9.89621 9.31832 10.1376 10 10.1376C10.6817 10.1376 11.3384 9.89621 12.2061 9.29434C13.0885 8.68231 14.1115 7.75403 15.5345 6.46045L17.4873 4.68514L17.5936 4.58905C17.3326 4.26253 17.0768 4.04868 16.7177 3.81145C15.6055 3.0769 14.0191 3.0769 10.8463 3.0769H9.15396C5.98111 3.0769 4.39468 3.0769 3.28256 3.81145C2.92339 4.04868 2.64568 4.28885 2.38473 4.61537Z" fill="#828D99"/>
</svg>
