<svg width="20" height="20" viewBox="0 0 20 20" fill="none" xmlns="http://www.w3.org/2000/svg">
<g filter="url(#filter0_b_2_125)">
<path fill-rule="evenodd" clip-rule="evenodd" d="M3.29576 4.21756C2.5 5.31283 2.5 6.87522 2.5 10C2.5 13.1248 2.5 14.6872 3.29576 15.7824C3.55276 16.1362 3.86383 16.4472 4.21756 16.7042C5.31283 17.5 6.87522 17.5 10 17.5C13.1248 17.5 14.6872 17.5 15.7824 16.7042C16.1362 16.4472 16.4472 16.1362 16.7042 15.7824C17.5 14.6872 17.5 13.1248 17.5 10C17.5 6.87522 17.5 5.31283 16.7042 4.21756C16.4472 3.86383 16.1362 3.55276 15.7824 3.29576C14.6872 2.5 13.1248 2.5 10 2.5C6.87522 2.5 5.31283 2.5 4.21756 3.29576C3.86383 3.55276 3.55276 3.86383 3.29576 4.21756ZM10.625 9.1666C10.625 8.82143 10.3451 8.5416 9.99997 8.5416C9.65479 8.5416 9.37497 8.82143 9.37497 9.1666V14.1666C9.37497 14.5118 9.65479 14.7916 9.99997 14.7916C10.3451 14.7916 10.625 14.5118 10.625 14.1666V9.1666ZM10.8333 6.6666C10.8333 7.12684 10.4602 7.49994 9.99997 7.49994C9.53973 7.49994 9.16664 7.12684 9.16664 6.6666C9.16664 6.20637 9.53973 5.83327 9.99997 5.83327C10.4602 5.83327 10.8333 6.20637 10.8333 6.6666Z" fill="#828D99"/>
</g>
<defs>
<filter id="filter0_b_2_125" x="-21.5" y="-21.5" width="63" height="63" filterUnits="userSpaceOnUse" color-interpolation-filters="sRGB">
<feFlood flood-opacity="0" result="BackgroundImageFix"/>
<feGaussianBlur in="BackgroundImageFix" stdDeviation="12"/>
<feComposite in2="SourceAlpha" operator="in" result="effect1_backgroundBlur_2_125"/>
<feBlend mode="normal" in="SourceGraphic" in2="effect1_backgroundBlur_2_125" result="shape"/>
</filter>
</defs>
</svg>
