<svg width="20" height="20" viewBox="0 0 20 20" fill="none" xmlns="http://www.w3.org/2000/svg">
<path d="M4.29208 5.01161C4.75498 5.00002 5.29217 5.00002 5.92629 5.00002H7.40777C9.48204 5.00002 10.5192 5.00002 11.3114 5.40579C12.0083 5.76272 12.5749 6.33225 12.93 7.03277C13.3337 7.82914 13.3337 8.87165 13.3337 10.9567V12.9662C13.3337 13.1744 13.3337 13.2785 13.3295 13.3665C13.2736 14.5542 12.6669 15.5948 11.7599 16.2365L13.2852 17.3245C14.031 17.8565 15.011 17.0882 14.6707 16.2384C14.4295 15.6364 14.8735 14.9816 15.5227 14.9816H16.0242C17.76 14.9816 19.1672 13.5763 19.1672 11.8429V8.32413C19.1672 5.99381 19.1672 4.82864 18.7131 3.93858C18.3136 3.15566 17.6762 2.51912 16.8922 2.1202C16.0009 1.66669 14.8341 1.66669 12.5006 1.66669H10.8339C8.50035 1.66669 7.33357 1.66669 6.44228 2.1202C5.65827 2.51912 5.02085 3.15566 4.62138 3.93858C4.46253 4.2499 4.35924 4.59489 4.29208 5.01161Z" fill="#828D99"/>
<path fill-rule="evenodd" clip-rule="evenodd" d="M12.1469 7.62695C12.5002 8.32964 12.5002 9.2495 12.5002 11.0892V12.8623C12.5002 13.046 12.5002 13.1379 12.4965 13.2155C12.4175 14.9076 11.082 16.2613 9.41267 16.3414C9.33609 16.3451 9.23499 16.3451 9.0328 16.3451L8.98092 16.3452C8.31965 16.3495 7.67551 16.5587 7.13495 16.9448L7.10058 16.9696L5.40844 18.1948C4.82835 18.6148 4.06609 18.0082 4.33084 17.3373C4.51838 16.8621 4.17309 16.3451 3.66812 16.3451H3.27809C1.92798 16.3451 0.833496 15.2357 0.833496 13.8672V11.0892C0.833496 9.2495 0.833496 8.32964 1.18672 7.62695C1.49742 7.00885 1.99319 6.50633 2.60297 6.19139C3.2962 5.83335 4.2037 5.83335 6.01868 5.83335H7.31498C9.12996 5.83335 10.0375 5.83335 10.7307 6.19139C11.3405 6.50633 11.8362 7.00885 12.1469 7.62695ZM4.16683 11.0417C3.82165 11.0417 3.54183 11.3215 3.54183 11.6667C3.54183 12.0119 3.82165 12.2917 4.16683 12.2917H9.16683C9.51201 12.2917 9.79183 12.0119 9.79183 11.6667C9.79183 11.3215 9.51201 11.0417 9.16683 11.0417H4.16683Z" fill="#828D99"/>
</svg>
