<svg width="20" height="20" viewBox="0 0 20 20" fill="none" xmlns="http://www.w3.org/2000/svg">
<g id="Like 1">
<g id="Subtract" filter="url(#filter0_b_602_10496)">
<path fill-rule="evenodd" clip-rule="evenodd" d="M20 8.32306C20 5.5228 20 4.12267 19.455 3.05311C18.9757 2.1123 18.2108 1.34739 17.27 0.868027C16.2004 0.323059 14.8003 0.323059 12 0.323059H8C5.19974 0.323059 3.79961 0.323059 2.73005 0.868027C1.78924 1.34739 1.02433 2.1123 0.544967 3.05311C0 4.12267 0 5.5228 0 8.32306V12.5514C0 14.6344 1.68863 16.3231 3.77166 16.3231H4.37341C5.15251 16.3231 5.68525 17.1099 5.3959 17.8333C4.98743 18.8545 6.1635 19.7777 7.05848 19.1384L9.66922 17.2736L9.72224 17.2359C10.5562 16.6482 11.5501 16.3297 12.5703 16.3232L12.6354 16.3231H13.1842C14.8734 16.3231 15.7179 16.3231 16.4069 16.1211C18.041 15.6419 19.3189 14.364 19.798 12.7299C20 12.041 20 11.1964 20 9.50728V8.32306ZM14.1557 5.05334C12.9886 3.86314 11.6371 4.36511 10.8003 4.89595C10.3275 5.19589 9.67245 5.19589 9.19961 4.89595C8.36278 4.36512 7.01132 3.86316 5.84423 5.05334C3.07372 7.87866 7.8249 13.323 9.99997 13.323C12.175 13.323 16.9262 7.87866 14.1557 5.05334Z" fill="#4CAE50"/>
</g>
</g>
<defs>
<filter id="filter0_b_602_10496" x="-24" y="-23.6769" width="68" height="67.0263" filterUnits="userSpaceOnUse" color-interpolation-filters="sRGB">
<feFlood flood-opacity="0" result="BackgroundImageFix"/>
<feGaussianBlur in="BackgroundImageFix" stdDeviation="12"/>
<feComposite in2="SourceAlpha" operator="in" result="effect1_backgroundBlur_602_10496"/>
<feBlend mode="normal" in="SourceGraphic" in2="effect1_backgroundBlur_602_10496" result="shape"/>
</filter>
</defs>
</svg>
