<svg width="20" height="20" viewBox="0 0 20 20" fill="none" xmlns="http://www.w3.org/2000/svg">
<g filter="url(#filter0_b_2_951)">
<path fill-rule="evenodd" clip-rule="evenodd" d="M18.3332 9.43589C18.3332 7.10234 18.3332 5.93557 17.879 5.04427C17.4796 4.26026 16.8421 3.62284 16.0581 3.22337C15.1668 2.76923 14.0001 2.76923 11.6665 2.76923H8.33317C5.99962 2.76923 4.83284 2.76923 3.94154 3.22337C3.15753 3.62284 2.52012 4.26026 2.12064 5.04427C1.6665 5.93557 1.6665 7.10234 1.6665 9.43589V12.9595C1.6665 14.6954 3.07369 16.1026 4.80955 16.1026H5.31101C5.96026 16.1026 6.40421 16.7583 6.16309 17.3611C5.82269 18.2121 6.80275 18.9814 7.54857 18.4487L9.72418 16.8947L9.76837 16.8632C10.4634 16.3735 11.2916 16.1081 12.1418 16.1026L12.196 16.1026H12.6534C14.061 16.1026 14.7648 16.1026 15.3389 15.9342C16.7006 15.5349 17.7655 14.47 18.1648 13.1083C18.3332 12.5342 18.3332 11.8304 18.3332 10.4227V9.43589ZM13.4629 6.71113C12.4903 5.7193 11.3641 6.1376 10.6668 6.57997C10.2727 6.82992 9.72688 6.82992 9.33284 6.57997C8.63549 6.13761 7.50927 5.71931 6.53669 6.71113C4.22794 9.06556 8.18725 13.6025 9.99981 13.6025C11.8124 13.6025 15.7717 9.06556 13.4629 6.71113Z" fill="#828D99"/>
</g>
<defs>
<filter id="filter0_b_2_951" x="-22.3335" y="-21.2308" width="64.6665" height="63.8553" filterUnits="userSpaceOnUse" color-interpolation-filters="sRGB">
<feFlood flood-opacity="0" result="BackgroundImageFix"/>
<feGaussianBlur in="BackgroundImageFix" stdDeviation="12"/>
<feComposite in2="SourceAlpha" operator="in" result="effect1_backgroundBlur_2_951"/>
<feBlend mode="normal" in="SourceGraphic" in2="effect1_backgroundBlur_2_951" result="shape"/>
</filter>
</defs>
</svg>
