<svg width="20" height="20" viewBox="0 0 20 20" fill="none" xmlns="http://www.w3.org/2000/svg">
<path d="M7.37427 2.34041C8.58575 2.24745 9.07592 2.21493 9.51409 2.29681C10.2251 2.42968 10.8784 2.77708 11.3862 3.2923C11.699 3.6098 11.9461 4.03437 12.5464 5.09076L13.4357 6.65563C13.9642 7.58582 14.1755 7.96521 14.2854 8.32938C14.5817 9.31076 14.4382 10.3724 13.8921 11.2399C13.6894 11.5618 13.3851 11.8715 12.6285 12.6281C11.872 13.3846 11.5623 13.6889 11.2404 13.8916C10.3729 14.4378 9.31124 14.5812 8.32987 14.2849C7.9657 14.175 7.58631 13.9638 6.65612 13.4352L5.09125 12.5459C4.03486 11.9456 3.61029 11.6985 3.29279 11.3857C2.77757 10.8779 2.43017 10.2246 2.29729 9.5136C2.21541 9.07543 2.24793 8.58526 2.34089 7.37379C2.46397 5.76984 2.52208 5.11986 2.74232 4.60505C2.83764 4.38224 2.95482 4.17149 3.09125 3.97539L7.56702 8.45117C7.60022 8.48436 7.63622 8.51305 7.67427 8.53721C7.49448 9.04047 7.60607 9.6245 8.00906 10.0275C8.56638 10.5848 9.46997 10.5848 10.0273 10.0275C10.5846 9.47017 10.5846 8.56658 10.0273 8.00926C9.62428 7.60625 9.04021 7.49466 8.53693 7.6745C8.51277 7.63646 8.48409 7.60047 8.4509 7.56728L3.975 3.09137C4.17134 2.95468 4.3824 2.83729 4.60554 2.74183C5.12035 2.5216 5.77033 2.46348 7.37427 2.34041Z" fill="#828D99"/>
<path d="M15.5583 10.4544C15.4382 10.963 15.2344 11.4539 14.9499 11.9059C14.663 12.3617 14.2495 12.775 13.5744 13.45L13.4505 13.5739C12.7755 14.249 12.3621 14.6625 11.9063 14.9494C11.454 15.2342 10.9627 15.4381 10.4535 15.5581L11.4822 16.5867C12.8917 17.9962 15.1769 17.9962 16.5864 16.5867C17.9959 15.1773 17.9959 12.892 16.5864 11.4825L15.5583 10.4544Z" fill="#828D99"/>
</svg>
