<svg width="20" height="20" viewBox="0 0 20 20" fill="none" xmlns="http://www.w3.org/2000/svg">
<g filter="url(#filter0_b_1_1530)">
<path fill-rule="evenodd" clip-rule="evenodd" d="M18.7522 2.64046C19.7778 4.03444 19.7778 6.02293 19.7778 9.99992C19.7778 13.9769 19.7778 15.9654 18.7522 17.3594C18.4209 17.8096 18.02 18.2055 17.5641 18.5326C16.1524 19.5454 14.1387 19.5454 10.1112 19.5454C6.08367 19.5454 4.06993 19.5454 2.65824 18.5326C2.20233 18.2055 1.80139 17.8096 1.47015 17.3594C0.444497 15.9654 0.444496 13.9769 0.444496 9.99992C0.444496 6.02293 0.444497 4.03444 1.47015 2.64046C1.80139 2.19026 2.20233 1.79435 2.65824 1.46726C4.06993 0.454468 6.08367 0.454468 10.1112 0.454468C14.1387 0.454468 16.1524 0.454468 17.5641 1.46726C18.02 1.79435 18.4209 2.19026 18.7522 2.64046Z" fill="white"/>
</g>
<path fill-rule="evenodd" clip-rule="evenodd" d="M10.4032 6.32247C10.0872 6.01321 10.085 5.50956 10.3981 5.19753C10.7113 4.88551 11.2214 4.88326 11.5374 5.19252L13.0853 6.70742C13.6612 7.27101 14.1415 7.74106 14.4839 8.16214C14.8431 8.6038 15.1163 9.06797 15.1893 9.63348C15.205 9.75514 15.2129 9.87752 15.2129 9.99992C15.2129 10.1223 15.205 10.2447 15.1893 10.3663C15.1163 10.9319 14.8431 11.396 14.4839 11.8377C14.1415 12.2588 13.6612 12.7288 13.0853 13.2924L11.5374 14.8073C11.2214 15.1166 10.7113 15.1143 10.3981 14.8023C10.085 14.4903 10.0872 13.9866 10.4032 13.6774L11.9181 12.1948C12.5356 11.5905 12.9495 11.1837 13.2278 10.8415C13.2405 10.8258 13.2528 10.8104 13.2647 10.7954H5.81474C5.36985 10.7954 5.00919 10.4392 5.00919 9.99992C5.00919 9.5606 5.36985 9.20446 5.81474 9.20446H13.2647C13.2528 9.18938 13.2405 9.174 13.2278 9.15831C12.9495 8.81613 12.5356 8.40936 11.9181 7.80503L10.4032 6.32247Z" fill="#007A3D"/>
<defs>
<filter id="filter0_b_1_1530" x="-23.5557" y="-23.5455" width="67.3335" height="67.0909" filterUnits="userSpaceOnUse" color-interpolation-filters="sRGB">
<feFlood flood-opacity="0" result="BackgroundImageFix"/>
<feGaussianBlur in="BackgroundImageFix" stdDeviation="12"/>
<feComposite in2="SourceAlpha" operator="in" result="effect1_backgroundBlur_1_1530"/>
<feBlend mode="normal" in="SourceGraphic" in2="effect1_backgroundBlur_1_1530" result="shape"/>
</filter>
</defs>
</svg>
