<svg width="175" height="36" viewBox="0 0 175 36" fill="none" xmlns="http://www.w3.org/2000/svg">
<g clip-path="url(#clip0_1_1503)">
<path fill-rule="evenodd" clip-rule="evenodd" d="M74.3989 35.9014V24.8052C77.994 18.4521 88.3403 20.5033 90.5873 8.17834V19.3723C90.2562 28.373 76.0685 29.2203 74.5049 35.3377C74.4567 35.5199 74.422 35.7076 74.3989 35.9014Z" fill="white"/>
<path fill-rule="evenodd" clip-rule="evenodd" d="M58.1587 19.322L58.1722 8.14734C60.4367 20.5144 70.8233 18.4094 74.3991 24.8048V35.901C74.3856 35.7783 74.299 35.4083 74.2836 35.347C72.7547 29.193 58.5034 28.3476 58.1587 19.322Z" fill="white"/>
<path fill-rule="evenodd" clip-rule="evenodd" d="M86.9484 0V7.46428C86.9484 16.6004 75.548 15.5611 75.3211 21.5977V15.4346C75.2121 5.06956 82.3102 8.59386 86.9484 0Z" fill="white"/>
<path fill-rule="evenodd" clip-rule="evenodd" d="M73.9546 19.9738C68.4454 10.3616 60.7103 13.6973 63.7643 17.4549L63.5852 17.3264C61.1436 15.5492 59.0524 12.9381 58.1743 8.15885C58.1762 8.02849 58.1801 7.88854 58.1839 7.83294C58.5383 3.36997 66.4871 3.4409 69.9975 6.07689C72.7318 8.07641 73.9546 10.8255 73.9546 14.6271V19.9738Z" fill="white"/>
</g>
<path d="M34.5913 29.015C33.0902 29.015 31.6486 28.7209 30.2666 28.1328C28.9085 27.5212 27.4431 26.4038 25.8705 24.7806L20.1161 18.8525V28.6621H15.4698L15.434 9.96038C15.434 8.76065 15.2672 7.87849 14.9336 7.31391C14.6 6.72581 13.9329 6.43176 12.9321 6.43176H12.5747V5.37317H16.8637C17.6976 5.37317 18.341 5.51431 18.7937 5.7966C19.2702 6.07889 19.6038 6.54938 19.7944 7.20805C20.0089 7.86673 20.1161 8.78417 20.1161 9.96038V16.6648L26.2994 9.07823C27.181 7.94907 28.1222 7.05515 29.1229 6.39647C30.1475 5.71427 31.3151 5.37317 32.6256 5.37317H35.1275V6.60819C33.6502 6.60819 32.3754 6.79638 31.3031 7.17277C30.2547 7.52563 29.3493 8.17254 28.5868 9.11351L23.2614 15.6062L31.5176 24.0749C32.3992 25.0394 33.3881 25.8862 34.4841 26.6155C35.604 27.3212 36.5095 27.7211 37.2005 27.8152V28.6621C36.4856 28.8973 35.6159 29.015 34.5913 29.015Z" fill="white"/>
<path d="M46.6315 29.015C45.7932 29.015 45.1528 28.8836 44.7103 28.6209C44.2679 28.3344 43.9535 27.8687 43.7672 27.2239C43.5809 26.5553 43.4878 25.6 43.4878 24.3582V5.37317H48.0287V24.3582C48.0287 25.5762 48.1917 26.4836 48.5177 27.0806C48.8437 27.6538 49.4958 27.9403 50.4738 27.9403H50.8231V29.015H46.6315Z" fill="white"/>
<path d="M116.27 29.015C114.854 29.015 113.572 28.7064 112.425 28.0892C111.279 27.4483 110.346 26.214 109.626 24.3863L108.85 22.3924H99.8789L97.1132 28.8725H95.3594L105.309 5.37317H106.827L114.382 24.3863C115.236 26.5938 116.405 27.7806 117.889 27.9468V28.8369C117.485 28.9556 116.945 29.015 116.27 29.015ZM100.587 20.7902H108.21L104.5 11.4972L100.587 20.7902Z" fill="white"/>
<path d="M134.564 29.015C132.294 29.015 130.332 28.5196 128.679 27.5289C127.047 26.5157 125.802 25.1422 124.942 23.4085C124.083 21.6747 123.653 19.7159 123.653 17.5318C123.653 15.2802 124.127 13.2312 125.075 11.3849C126.022 9.51611 127.323 8.05257 128.976 6.99432C130.652 5.91355 132.514 5.37317 134.564 5.37317C136.504 5.37317 138.124 5.6321 139.425 6.14997C140.725 6.64532 141.717 7.29828 142.401 8.10886C142.797 8.62673 143.04 9.26843 143.128 10.034C143.216 10.7995 143.26 11.869 143.26 13.2425H142.268C141.85 11.171 141.078 9.59492 139.954 8.51415C138.83 7.43338 137.364 6.893 135.556 6.893C133.308 6.893 131.533 7.70357 130.233 9.32472C128.932 10.9459 128.282 13.6816 128.282 17.5318C128.282 20.3913 128.877 22.7668 130.067 24.6581C131.258 26.5495 133.087 27.4951 135.556 27.4951C137.099 27.4951 138.51 27.0786 139.789 26.2455C141.089 25.4124 142.136 24.2191 142.93 22.6654L144.087 23.5773C143.029 25.4687 141.75 26.8534 140.251 27.7315C138.752 28.5872 136.857 29.015 134.564 29.015Z" fill="white"/>
<path d="M153.632 10.0299C153.632 8.81197 153.473 7.91645 153.154 7.34332C152.835 6.7463 152.197 6.44779 151.24 6.44779H150.898V5.37317H154.999C155.819 5.37317 156.445 5.51645 156.878 5.80302C157.311 6.08959 157.619 6.5672 157.801 7.23585C157.983 7.88063 158.074 8.81197 158.074 10.0299V15.9403H167.3V5.37317H171.743V24.3582C171.743 25.5762 171.902 26.4836 172.221 27.0806C172.54 27.6538 173.178 27.9403 174.135 27.9403H174.476V29.015H170.376C169.556 29.015 168.929 28.8836 168.496 28.6209C168.064 28.3344 167.756 27.8687 167.574 27.2239C167.392 26.5553 167.3 25.6 167.3 24.3582V17.5523H158.074V29.015H153.632V10.0299Z" fill="white"/>
<path d="M4.34132 10.1304C3.62275 10.1304 3.06387 9.86607 2.66467 9.33749C2.28543 8.80892 2.09581 8.16021 2.09581 7.39137C2.09581 6.76669 2.24551 6.27415 2.54491 5.91376C2.86427 5.55337 3.26347 5.37317 3.74252 5.37317C4.46108 5.37317 5.00998 5.63746 5.38922 6.16603C5.78842 6.69461 5.98802 7.34332 5.98802 8.11216C5.98802 8.73684 5.82834 9.22938 5.50898 9.58977C5.20958 9.95016 4.82036 10.1304 4.34132 10.1304ZM2.39521 16.7616C2.39521 15.5363 2.25549 14.6353 1.97605 14.0586C1.69661 13.458 1.13772 13.1577 0.299401 13.1577H0V12.0765H3.59281C4.31138 12.0765 4.86028 12.2206 5.23952 12.509C5.61876 12.7973 5.88822 13.2778 6.0479 13.9505C6.20758 14.5992 6.28742 15.5363 6.28742 16.7616V29.015H2.39521V16.7616Z" fill="white"/>
<defs>
<clipPath id="clip0_1_1503">
<rect width="32.485" height="36" fill="white" transform="translate(58.1587)"/>
</clipPath>
</defs>
</svg>
