<svg width="121" height="26" viewBox="0 0 121 26" fill="none" xmlns="http://www.w3.org/2000/svg">
<g clip-path="url(#clip0_84_1730)">
<path fill-rule="evenodd" clip-rule="evenodd" d="M51.4417 25.4314V17.7257C53.9274 13.3138 61.0811 14.7383 62.6348 6.17932V13.9529C62.4058 20.2034 52.596 20.7918 51.5149 25.04C51.4816 25.1665 51.4576 25.2969 51.4417 25.4314Z" fill="url(#paint0_linear_84_1730)"/>
<path fill-rule="evenodd" clip-rule="evenodd" d="M40.2125 13.918L40.2218 6.15784C41.7876 14.7461 48.9692 13.2843 51.4416 17.7256V25.4312C51.4323 25.346 51.3724 25.0891 51.3618 25.0465C50.3046 20.7729 40.4508 20.1858 40.2125 13.918Z" fill="url(#paint1_linear_84_1730)"/>
<path fill-rule="evenodd" clip-rule="evenodd" d="M60.1185 0.5V5.68353C60.1185 12.028 52.236 11.3063 52.0791 15.4984V11.2185C52.0038 4.02053 56.9116 6.46796 60.1185 0.5Z" fill="url(#paint2_linear_84_1730)"/>
<path fill-rule="evenodd" clip-rule="evenodd" d="M51.1341 14.3708C47.3249 7.6956 41.9766 10.0121 44.0882 12.6215L43.9644 12.5323C42.2762 11.2981 40.8303 9.48487 40.2231 6.16592C40.2245 6.07539 40.2271 5.97821 40.2298 5.9396C40.4748 2.84031 45.9709 2.88957 48.398 4.72012C50.2886 6.10867 51.1341 8.01777 51.1341 10.6578V14.3708Z" fill="url(#paint3_linear_84_1730)"/>
</g>
<path d="M23.9175 20.6492C22.8796 20.6492 21.8828 20.445 20.9273 20.0366C19.9882 19.6119 18.975 18.8359 17.8876 17.7087L13.9089 13.592V20.4042H10.6963L10.6716 7.41689C10.6716 6.58374 10.5563 5.97113 10.3256 5.57906C10.095 5.17066 9.63366 4.96645 8.94171 4.96645H8.69458V4.23132H11.6601C12.2367 4.23132 12.6815 4.32934 12.9946 4.52538C13.3241 4.72141 13.5547 5.04813 13.6865 5.50555C13.8348 5.96296 13.9089 6.60008 13.9089 7.41689V12.0727L18.1842 6.80428C18.7938 6.02014 19.4445 5.39936 20.1365 4.94195C20.8449 4.4682 21.6522 4.23132 22.5583 4.23132H24.2882V5.08898C23.2667 5.08898 22.3853 5.21967 21.644 5.48104C20.9191 5.72609 20.293 6.17533 19.7658 6.82878L16.0836 11.3376L21.7922 17.2186C22.4018 17.8884 23.0855 18.4765 23.8434 18.9829C24.6177 19.473 25.2438 19.7507 25.7215 19.8161V20.4042C25.2273 20.5676 24.6259 20.6492 23.9175 20.6492Z" fill="#5B5B5B"/>
<path d="M32.2425 20.6492C31.6629 20.6492 31.2201 20.558 30.9142 20.3756C30.6082 20.1766 30.3909 19.8532 30.2621 19.4055C30.1333 18.9411 30.0688 18.2778 30.0688 17.4154V4.23132H33.2086V17.4154C33.2086 18.2612 33.3213 18.8914 33.5467 19.306C33.7721 19.704 34.2229 19.903 34.8992 19.903H35.1407V20.6492H32.2425Z" fill="#5B5B5B"/>
<path d="M80.3926 20.6492C79.4131 20.6492 78.5269 20.4349 77.7341 20.0064C76.9412 19.5613 76.296 18.7041 75.7985 17.4349L75.2621 16.0502H69.059L67.1467 20.5503H65.9341L72.8135 4.23132H73.8629L79.0866 17.4349C79.6774 18.9679 80.4858 19.7921 81.5119 19.9075V20.5256C81.2321 20.608 80.859 20.6492 80.3926 20.6492ZM69.5487 14.9376H74.819L72.2538 8.48416L69.5487 14.9376Z" fill="#5B5B5B"/>
<path d="M93.0415 20.6492C91.4717 20.6492 90.1152 20.3052 88.9721 19.6173C87.8442 18.9136 86.9831 17.9598 86.3887 16.7558C85.7943 15.5519 85.4971 14.1915 85.4971 12.6748C85.4971 11.1112 85.8248 9.68832 86.4801 8.40616C87.1355 7.10837 88.0348 6.09202 89.1779 5.35712C90.3362 4.60659 91.6241 4.23132 93.0415 4.23132C94.3828 4.23132 95.503 4.41114 96.4023 4.77077C97.3015 5.11476 97.9874 5.56821 98.4598 6.13111C98.7342 6.49074 98.9018 6.93637 98.9628 7.468C99.0238 7.99962 99.0543 8.74234 99.0543 9.69614H98.3684C98.0788 8.25762 97.5454 7.16309 96.7681 6.41256C95.9907 5.66203 94.9772 5.28676 93.7274 5.28676C92.1728 5.28676 90.9459 5.84966 90.0466 6.97546C89.1474 8.10126 88.6978 10.001 88.6978 12.6748C88.6978 14.6606 89.1093 16.3102 89.9323 17.6236C90.7553 18.9371 92.0204 19.5938 93.7274 19.5938C94.7943 19.5938 95.7697 19.3045 96.6537 18.726C97.553 18.1475 98.2769 17.3187 98.8256 16.2399L99.6258 16.8731C98.8942 18.1865 98.0102 19.1482 96.9738 19.758C95.9374 20.3521 94.6266 20.6492 93.0415 20.6492Z" fill="#5B5B5B"/>
<path d="M106.225 7.46515C106.225 6.61938 106.115 5.99749 105.895 5.59948C105.674 5.18489 105.233 4.97759 104.572 4.97759H104.335V4.23132H107.171C107.738 4.23132 108.171 4.33083 108.47 4.52983C108.769 4.72884 108.982 5.06051 109.108 5.52486C109.234 5.97262 109.297 6.61938 109.297 7.46515V11.5696H115.676V4.23132H118.748V17.4154C118.748 18.2612 118.858 18.8914 119.078 19.306C119.299 19.704 119.74 19.903 120.401 19.903H120.638V20.6492H117.803C117.235 20.6492 116.802 20.558 116.503 20.3756C116.204 20.1766 115.991 19.8532 115.865 19.4055C115.739 18.9411 115.676 18.2778 115.676 17.4154V12.689H109.297V20.6492H106.225V7.46515Z" fill="#5B5B5B"/>
<path d="M3.00171 7.53493C2.50488 7.53493 2.11845 7.35139 1.84243 6.98433C1.58021 6.61726 1.4491 6.16677 1.4491 5.63285C1.4491 5.19905 1.55261 4.85701 1.75962 4.60673C1.98044 4.35646 2.25646 4.23132 2.58768 4.23132C3.08452 4.23132 3.46404 4.41486 3.72626 4.78192C4.00228 5.14899 4.14029 5.59948 4.14029 6.1334C4.14029 6.5672 4.02988 6.90924 3.80907 7.15952C3.60205 7.40979 3.33293 7.53493 3.00171 7.53493ZM1.65612 12.14C1.65612 11.289 1.55951 10.6633 1.3663 10.2629C1.17308 9.84578 0.786655 9.63722 0.207015 9.63722H0V8.8864H2.48417C2.98101 8.8864 3.36054 8.98651 3.62275 9.18673C3.88497 9.38695 4.07129 9.72065 4.18169 10.1878C4.2921 10.6383 4.34731 11.289 4.34731 12.14V20.6492H1.65612V12.14Z" fill="#5B5B5B"/>
<defs>
<linearGradient id="paint0_linear_84_1730" x1="62.6348" y1="15.8047" x2="51.4417" y2="15.8047" gradientUnits="userSpaceOnUse">
<stop stop-color="#1D4747"/>
<stop offset="0.109804" stop-color="#2B452D"/>
<stop offset="0.65098" stop-color="#1B813E"/>
<stop offset="0.870588" stop-color="#49AD3E"/>
<stop offset="1" stop-color="#49AD3E"/>
</linearGradient>
<linearGradient id="paint1_linear_84_1730" x1="51.4403" y1="15.7938" x2="40.2139" y2="15.7938" gradientUnits="userSpaceOnUse">
<stop stop-color="#1D4747"/>
<stop offset="0.54902" stop-color="#1B813E"/>
<stop offset="0.870588" stop-color="#6BB538"/>
<stop offset="1" stop-color="#1B813E"/>
</linearGradient>
<linearGradient id="paint2_linear_84_1730" x1="60.1185" y1="7.99917" x2="52.0038" y2="7.99917" gradientUnits="userSpaceOnUse">
<stop stop-color="#1D4747"/>
<stop offset="0.109804" stop-color="#2B452D"/>
<stop offset="0.65098" stop-color="#1B813E"/>
<stop offset="0.870588" stop-color="#49AD3E"/>
<stop offset="1" stop-color="#49AD3E"/>
</linearGradient>
<linearGradient id="paint3_linear_84_1730" x1="39.8677" y1="14.3402" x2="51.486" y2="3.40522" gradientUnits="userSpaceOnUse">
<stop stop-color="#1D4747"/>
<stop offset="1" stop-color="#1B813E"/>
</linearGradient>
<clipPath id="clip0_84_1730">
<rect width="22.4611" height="25" fill="white" transform="translate(40.2125 0.5)"/>
</clipPath>
</defs>
</svg>
